<svg width="277" height="274" viewBox="0 0 277 274" fill="none" xmlns="http://www.w3.org/2000/svg">
<g clip-path="url(#clip0_19_9326)">
<path d="M149.004 274C144.746 273.795 137.59 273.486 130.439 273.089C125.939 272.836 121.419 272.619 116.949 272.068C111.607 271.406 106.283 270.514 100.99 269.53C91.4024 267.74 82.0515 265.01 72.9686 261.494C64.0976 258.064 55.9623 253.389 49.3979 246.344C45.2773 241.923 40.8948 237.726 36.9924 233.126C32.2171 227.492 27.7723 221.579 23.2776 215.716C20.1669 211.655 17.0499 207.588 14.2571 203.309C12.1251 200.041 10.2923 196.543 8.69638 192.983C7.24387 189.739 6.15292 186.315 5.14926 182.897C4.13312 179.443 3.18556 175.932 2.61203 172.385C1.73928 166.955 0.947563 161.495 0.610929 156.016C0.149615 148.45 0 140.866 0 133.294C0 129.394 0.492483 125.481 0.928861 121.599C1.77668 114.077 2.53099 106.53 3.72168 99.0574C4.70664 92.8663 6.15916 86.7371 7.60544 80.6265C8.70885 75.9708 9.84967 71.2903 11.5079 66.8141C13.0913 62.5361 15.2171 58.4314 17.3741 54.3948C20.2666 48.9775 25.1852 45.5043 30.1786 42.2168C37.0173 37.7159 43.9806 33.4007 51.4988 30.0699C62.0093 25.4142 72.5384 20.8018 83.0801 16.2018C88.8215 13.6944 94.5568 11.1808 100.354 8.81581C107.124 6.05457 114.094 3.97436 121.263 2.40801C131.761 0.104917 142.371 -0.402754 152.994 0.278268C162.619 0.891188 172.126 2.61851 181.458 5.19401C191.819 8.06049 201.943 11.5647 211.581 16.3009C217.329 19.1302 222.902 22.3558 228.369 25.6928C235.432 30.008 241.448 35.6295 247.37 41.3563C255.044 48.7918 260.299 57.7008 263.809 67.6499C266.34 74.8316 268.715 82.0814 270.822 89.3931C272.243 94.315 273.166 99.3855 274.145 104.425C276.427 116.213 277.324 128.131 276.894 140.111C276.67 146.283 276.046 152.45 275.485 158.61C275.136 162.399 274.662 166.188 274.058 169.946C273.422 173.896 272.642 177.827 271.782 181.733C270.641 186.903 269.494 192.079 268.123 197.193C265.904 205.458 263.073 213.525 259.133 221.152C256.378 226.483 252.968 231.361 248.698 235.683C242.04 242.425 235.419 249.204 227.54 254.566C219.298 260.175 210.203 264.044 200.646 266.812C195.497 268.304 190.242 269.474 184.999 270.625C174.108 273.021 163.018 273.622 149.004 274ZM143.375 110.61V99.2122C144.659 101.144 145.675 102.679 146.698 104.208C147.982 106.146 149.166 108.158 150.619 109.96C151.055 110.499 152.233 110.499 153.094 110.61C153.237 110.629 153.636 109.929 153.636 109.558C153.673 104.97 153.686 100.376 153.611 95.7885C153.611 95.4109 152.982 94.8289 152.551 94.7174C151.417 94.4265 150.893 94.9032 150.924 96.1847C151.005 99.3422 150.949 102.506 150.949 106.103C148.443 102.308 146.174 98.9274 143.973 95.5037C143.325 94.4884 142.371 94.5069 141.53 94.7732C141.149 94.897 140.832 95.8133 140.825 96.3767C140.769 100.605 140.788 104.834 140.8 109.062C140.8 109.564 140.906 110.059 140.969 110.61H143.375ZM118.844 172.199C118.52 171.791 118.383 171.648 118.277 171.487C116.139 168.262 113.976 165.048 111.893 161.786C111.245 160.77 110.31 160.708 109.481 161.012C109.063 161.16 108.733 162.12 108.72 162.721C108.658 166.9 108.677 171.072 108.695 175.251C108.695 175.784 108.833 176.322 108.901 176.818H111.351V165.655C111.675 166.082 111.806 166.237 111.918 166.404C114.057 169.636 116.22 172.849 118.302 176.106C118.994 177.189 120.004 177.065 120.902 176.836C121.232 176.756 121.519 175.796 121.525 175.233C121.575 171.004 121.537 166.776 121.562 162.547C121.562 161.575 121.519 160.882 120.191 160.876C118.863 160.869 118.819 161.55 118.826 162.529C118.857 165.649 118.838 168.769 118.838 172.199H118.844ZM111.806 103.899C111.625 104.598 111.544 105.137 111.345 105.632C110.634 107.415 108.097 108.92 105.834 108.387C103.023 107.725 101.42 105.855 101.321 102.921C101.202 99.4908 103.584 96.9772 106.881 97.0701C108.621 97.1196 109.955 97.8997 110.834 99.3917C111.494 100.512 112.511 100.135 113.458 100.067C113.396 99.4165 113.521 98.6798 113.246 98.1411C111.37 94.445 105.491 93.2501 102.006 95.8318C98.8333 98.1783 98.185 101.398 98.9019 105.044C99.625 108.691 103.353 111.39 107.043 110.963C111.538 110.449 114.58 107.143 114.368 103.069C114.325 102.271 114.094 101.8 113.196 101.812C111.12 101.831 109.038 101.751 106.969 101.874C106.551 101.899 106.171 102.642 105.772 103.057C106.158 103.342 106.532 103.837 106.931 103.862C108.471 103.955 110.023 103.899 111.794 103.899H111.806ZM187.337 176.725C187.337 171.71 187.356 166.77 187.293 161.823C187.293 161.52 186.738 161.03 186.377 160.95C185.192 160.696 184.575 161.105 184.613 162.479C184.694 165.593 184.638 168.707 184.638 172.243C182.3 168.707 180.118 165.581 178.136 162.337C177.263 160.907 176.247 160.647 174.757 161.092V176.787C177.238 177.103 177.3 177.053 177.306 174.806C177.306 171.945 177.306 169.085 177.306 166.219C179.638 169.221 181.751 172.255 183.678 175.406C184.569 176.861 185.61 177.239 187.337 176.712V176.725ZM67.4203 176.923C70.0947 176.923 72.5384 177.053 74.9572 176.88C76.7713 176.75 78.1241 175.734 78.6539 173.852C79.2836 171.611 78.3235 169.995 76.5718 168.689C78.1802 167.364 78.8347 165.835 78.3173 163.854C77.7999 161.866 76.2414 161.179 74.5021 161.012C72.4449 160.814 70.3565 160.907 68.2869 160.962C67.9939 160.968 67.4702 161.476 67.464 161.755C67.4141 166.739 67.4266 171.729 67.4266 176.929L67.4203 176.923ZM128.42 144.116C132.983 144.122 136.437 140.649 136.38 135.876C136.324 130.781 133.064 127.673 128.501 127.537C123.95 127.4 120.39 131.152 120.415 135.87C120.446 140.575 123.869 144.11 128.42 144.116ZM130.695 176.942C132.646 176.942 134.398 176.942 136.144 176.942C141.268 176.929 144.073 174.447 144.41 169.376C144.69 165.191 142.714 161.916 138.369 161.222C136.287 160.888 134.136 161.03 132.017 160.907C130.982 160.845 130.67 161.284 130.676 162.262C130.714 165.767 130.689 169.271 130.689 172.781C130.689 174.106 130.689 175.431 130.689 176.948L130.695 176.942ZM177.705 105.298C176.459 105.298 175.38 104.704 174.501 106.01C173.036 108.183 170.817 108.901 168.548 108.14C166.409 107.428 165.169 105.391 165.188 102.617C165.2 99.8994 166.515 97.8687 168.71 97.2001C168.953 97.1258 169.215 97.0948 169.47 97.0701C171.677 96.8534 173.46 97.5839 174.595 99.5279C175.287 100.717 176.321 100.543 177.275 100.159C177.431 100.098 177.275 98.7788 176.97 98.1968C175.181 94.8289 171.222 93.8197 167.538 94.9032C164.19 95.8876 162.482 98.8903 162.457 103.168C162.42 109.174 168.373 112.802 174.152 110.009C176.06 109.087 177.182 107.484 177.705 105.292V105.298ZM211.213 171.5C209.947 171.45 208.807 171.097 207.897 172.608C206.756 174.496 204.736 174.874 202.685 174.49C200.865 174.149 199.661 172.924 199.169 171.159C198.926 170.286 198.87 169.339 198.876 168.429C198.895 166.051 200.291 164.107 202.348 163.457C204.505 162.77 206.762 163.612 208.171 165.618C209.044 166.869 209.829 167.005 211.269 166.181C210.328 162.219 206.93 160.263 202.124 160.913C198.196 161.445 195.89 165.079 196.152 170.317C196.339 174.044 199.649 177.103 203.601 177.214C207.541 177.319 210.795 174.936 211.213 171.5ZM91.0097 110.486C90.8788 110.028 90.8102 109.675 90.6855 109.347C89.0335 104.976 87.3441 100.618 85.7482 96.2281C85.3804 95.2127 84.8443 94.9465 83.8157 94.9279C82.731 94.9094 82.2696 95.3242 81.9143 96.2838C80.3371 100.574 78.6851 104.834 77.0705 109.112C76.9022 109.558 76.8399 110.04 76.6778 110.697C77.8872 110.48 79.3148 111.353 79.6451 109.818C80.1439 107.477 81.5091 106.92 83.6349 107.248C84.2396 107.341 84.8879 107.335 85.4988 107.248C86.7145 107.081 87.2319 107.663 87.5997 108.74C88.3478 110.969 88.4163 110.957 91.0097 110.48V110.486ZM166.422 176.688C166.297 176.254 166.204 175.809 166.042 175.388C164.427 171.116 162.775 166.85 161.192 162.566C160.849 161.625 160.437 161.173 159.334 161.173C158.206 161.173 157.688 161.563 157.314 162.584C155.743 166.875 154.091 171.14 152.483 175.412C152.327 175.827 152.246 176.267 152.09 176.867C153.25 176.725 154.696 177.654 155.02 176.143C155.569 173.611 157.102 173.184 159.284 173.493C159.789 173.567 160.331 173.574 160.836 173.493C162.121 173.283 162.675 173.889 163.056 175.041C163.766 177.202 163.991 177.264 166.422 176.682V176.688ZM59.179 176.725C59.1354 176.44 59.1479 176.124 59.0419 175.858C57.3338 171.289 55.5945 166.739 53.9113 162.163C53.556 161.191 52.8703 161.222 52.0661 161.204C51.2058 161.179 50.6323 161.34 50.2894 162.262C48.6748 166.646 46.9854 170.998 45.3396 175.369C45.1713 175.809 45.1027 176.285 44.9781 176.768C47.534 177.127 47.5714 177.14 48.3569 174.905C48.7122 173.896 49.2172 173.382 50.3704 173.493C51.4988 173.598 52.6583 173.605 53.7867 173.493C55.0085 173.375 55.5259 173.914 55.8875 174.991C56.6356 177.226 56.7291 177.239 59.1728 176.737L59.179 176.725ZM99.4131 161.08C96.9444 160.727 96.8696 160.789 96.8447 162.943C96.8135 165.779 96.8447 168.615 96.7262 171.45C96.6389 173.53 95.4732 174.552 93.4596 174.558C91.3525 174.564 90.2055 173.549 90.0746 171.394C89.9686 169.593 89.9748 167.791 89.9561 165.983C89.9374 164.349 89.9561 162.714 89.9561 161.006H87.3628C87.3628 164.584 87.3254 168.076 87.3753 171.561C87.4189 174.793 89.6694 177.028 92.9671 177.22C96.3584 177.418 99.145 175.462 99.3569 172.273C99.6063 168.59 99.4131 164.869 99.4131 161.086V161.08ZM132.129 108.87C131.973 108.784 131.848 108.654 131.711 108.647C130.832 108.61 129.953 108.592 129.068 108.592C125.328 108.592 125.359 108.592 125.608 104.902C125.664 104.091 125.976 103.812 126.743 103.831C127.933 103.856 129.13 103.818 130.321 103.831C131.119 103.837 131.574 103.589 131.568 102.679C131.568 101.782 131.131 101.509 130.321 101.515C129.13 101.528 127.933 101.571 126.749 101.478C126.362 101.447 125.758 101.07 125.683 100.748C124.972 97.6582 125.552 96.971 128.7 96.971C129.268 96.971 129.841 96.9772 130.408 96.971C132.254 96.9401 132.378 96.7667 131.923 94.6865C129.28 94.6865 126.599 94.6493 123.919 94.736C123.576 94.7484 122.977 95.4108 122.971 95.7761C122.909 100.407 122.915 105.044 122.959 109.675C122.959 110.016 123.383 110.635 123.62 110.641C126.444 110.709 129.268 110.684 132.129 110.684V108.889V108.87ZM220.146 176.812H229.273V174.83C228.157 174.83 227.172 174.83 226.193 174.83C222.59 174.83 222.609 174.83 222.846 171.165C222.895 170.379 223.157 170.051 223.955 170.063C225.202 170.088 226.461 170.15 227.689 170.001C228.095 169.952 228.712 169.277 228.699 168.899C228.687 168.509 228.101 167.977 227.652 167.797C227.153 167.605 226.524 167.754 225.956 167.742C222.409 167.649 222.933 168.46 222.852 164.46C222.833 163.507 223.213 163.173 224.13 163.197C225.476 163.228 226.829 163.197 228.182 163.185C228.949 163.179 229.435 162.931 229.435 162.009C229.435 161.074 228.992 160.888 228.188 160.9C225.956 160.925 223.718 160.944 221.487 160.894C220.477 160.869 220.115 161.235 220.128 162.238C220.171 165.073 220.14 167.909 220.14 170.744C220.14 172.738 220.14 174.738 220.14 176.812H220.146ZM154.378 127.784C151.891 127.784 149.36 127.858 146.841 127.753C145.488 127.697 145.145 128.261 145.152 129.456C145.183 133.734 145.158 138.006 145.17 142.284C145.17 142.736 145.27 143.188 145.332 143.683H147.764C147.764 141.764 147.795 139.962 147.751 138.173C147.733 137.318 148.026 136.953 148.917 136.984C150.158 137.027 151.417 137.071 152.645 136.935C153.013 136.897 153.574 136.291 153.592 135.925C153.611 135.554 153.137 134.984 152.745 134.817C152.252 134.613 151.623 134.737 151.055 134.724C147.234 134.65 147.845 135.337 147.751 131.295C147.726 130.298 148.206 130.056 149.073 130.081C150.32 130.112 151.56 130.1 152.807 130.081C154.683 130.05 154.802 129.883 154.378 127.79V127.784ZM198.078 94.9094C195.572 94.3522 195.404 94.4265 194.4 96.4076C193.546 98.0916 192.692 99.7818 191.732 101.664C190.734 99.7261 189.843 97.9925 188.945 96.2652C188.004 94.4388 187.543 94.2717 185.199 95.0146C186.121 96.7543 186.975 98.4878 187.942 100.166C189.444 102.778 190.703 105.379 190.342 108.573C190.086 110.821 190.554 111.031 193.141 110.362C191.863 105.886 194.238 102.302 196.301 98.624C196.732 97.8625 197.137 97.0886 197.517 96.3024C197.735 95.8628 197.885 95.3861 198.072 94.9032L198.078 94.9094Z" fill="white"/>
<path d="M143.375 110.617H140.969C140.906 110.066 140.807 109.564 140.8 109.069C140.788 104.84 140.769 100.612 140.825 96.3833C140.831 95.8199 141.149 94.9036 141.53 94.7798C142.371 94.5136 143.319 94.495 143.973 95.5104C146.174 98.9341 148.443 102.314 150.949 106.11C150.949 102.513 151.005 99.3489 150.924 96.1914C150.893 94.9098 151.417 94.4331 152.551 94.7241C152.981 94.8355 153.605 95.4175 153.611 95.7952C153.686 100.383 153.673 104.977 153.636 109.564C153.636 109.936 153.237 110.635 153.094 110.617C152.24 110.511 151.055 110.511 150.619 109.967C149.166 108.165 147.982 106.147 146.698 104.215C145.675 102.68 144.659 101.144 143.375 99.2188V110.617Z" fill="black"/>
<path d="M118.844 172.206C118.844 168.776 118.863 165.656 118.832 162.535C118.819 161.557 118.869 160.876 120.197 160.882C121.525 160.889 121.575 161.582 121.569 162.554C121.55 166.782 121.581 171.011 121.531 175.24C121.525 175.803 121.238 176.763 120.908 176.843C120.01 177.066 119 177.19 118.308 176.113C116.22 172.85 114.057 169.643 111.925 166.411C111.812 166.244 111.681 166.083 111.357 165.662V176.824H108.907C108.839 176.329 108.702 175.797 108.702 175.258C108.683 171.079 108.664 166.9 108.727 162.727C108.733 162.127 109.069 161.167 109.487 161.019C110.316 160.721 111.258 160.783 111.9 161.792C113.976 165.055 116.145 168.268 118.283 171.494C118.389 171.655 118.52 171.797 118.851 172.206H118.844Z" fill="black"/>
<path d="M111.806 103.906C110.042 103.906 108.49 103.961 106.944 103.868C106.538 103.844 106.171 103.342 105.784 103.064C106.183 102.649 106.557 101.906 106.981 101.881C109.051 101.757 111.133 101.838 113.209 101.819C114.106 101.813 114.337 102.277 114.381 103.076C114.599 107.156 111.551 110.456 107.056 110.97C103.365 111.391 99.6312 108.697 98.9143 105.051C98.1912 101.404 98.8457 98.185 102.019 95.8386C105.504 93.2569 111.382 94.4517 113.259 98.1478C113.533 98.6865 113.408 99.4294 113.471 100.073C112.523 100.141 111.507 100.519 110.846 99.3984C109.967 97.9064 108.633 97.1263 106.894 97.0768C103.596 96.9839 101.215 99.4975 101.333 102.927C101.433 105.862 103.035 107.732 105.846 108.394C108.116 108.927 110.647 107.422 111.357 105.639C111.557 105.144 111.638 104.605 111.819 103.906H111.806Z" fill="black"/>
<path d="M187.331 176.731C185.604 177.258 184.557 176.88 183.671 175.425C181.745 172.274 179.625 169.24 177.3 166.238C177.3 169.098 177.3 171.958 177.3 174.825C177.3 177.072 177.232 177.121 174.75 176.806V161.111C176.24 160.666 177.257 160.926 178.129 162.356C180.118 165.6 182.294 168.726 184.631 172.261C184.631 168.726 184.687 165.612 184.606 162.498C184.569 161.124 185.192 160.715 186.371 160.969C186.738 161.049 187.287 161.532 187.287 161.842C187.343 166.782 187.331 171.729 187.331 176.744V176.731Z" fill="black"/>
<path d="M67.4141 176.93C67.4141 171.729 67.4016 166.745 67.4515 161.755C67.4515 161.477 67.9814 160.969 68.2744 160.963C70.3441 160.907 72.4324 160.814 74.4897 161.012C76.2289 161.179 77.7874 161.867 78.3048 163.854C78.8223 165.835 78.1615 167.364 76.5593 168.689C78.3173 170.002 79.2711 171.611 78.6415 173.853C78.1116 175.741 76.7651 176.75 74.9447 176.88C72.526 177.053 70.0885 176.923 67.4079 176.923L67.4141 176.93ZM70.0885 172.255C70.076 175.047 70.3939 175.295 73.2179 174.726C73.5234 174.664 73.8226 174.602 74.1281 174.546C75.3063 174.335 75.992 173.555 76.0793 172.46C76.1728 171.339 75.5557 170.392 74.4273 170.156C73.2366 169.903 71.9836 169.89 70.7555 169.884C70.5373 169.884 70.1882 170.398 70.1196 170.72C70.0137 171.209 70.0885 171.741 70.0885 172.255ZM70.076 165.457C70.076 166.968 70.714 167.723 71.9898 167.723C74.4959 167.723 75.724 167.005 75.7988 165.488C75.8736 163.99 74.6019 163.26 71.9275 163.253C70.6932 163.253 70.076 163.986 70.076 165.451V165.457Z" fill="black"/>
<path d="M128.413 144.123C123.863 144.117 120.44 140.588 120.409 135.876C120.378 131.159 123.944 127.407 128.494 127.543C133.058 127.679 136.324 130.787 136.374 135.883C136.424 140.656 132.97 144.135 128.413 144.123ZM128.513 130.187C125.334 130.168 123.108 132.533 123.139 135.895C123.164 139.158 125.284 141.436 128.32 141.473C131.468 141.51 133.581 139.319 133.662 135.92C133.743 132.607 131.58 130.199 128.513 130.181V130.187Z" fill="black"/>
<path d="M130.689 176.948C130.689 175.432 130.689 174.107 130.689 172.782C130.689 169.278 130.714 165.773 130.676 162.263C130.664 161.279 130.982 160.845 132.017 160.907C134.136 161.031 136.287 160.895 138.369 161.223C142.714 161.923 144.69 165.198 144.41 169.377C144.073 174.447 141.274 176.93 136.144 176.942C134.392 176.942 132.646 176.942 130.695 176.942L130.689 176.948ZM133.407 168.931C133.407 169.859 133.388 170.788 133.407 171.711C133.469 174.887 132.833 174.565 136.306 174.534C139.473 174.509 141.324 172.769 141.704 169.562C142.078 166.417 140.601 164.207 137.528 163.52C136.536 163.297 135.477 163.39 134.448 163.316C133.6 163.254 133.382 163.699 133.394 164.448C133.419 165.941 133.401 167.439 133.401 168.931H133.407Z" fill="black"/>
<path d="M177.699 105.304C177.176 107.496 176.053 109.093 174.146 110.022C168.373 112.814 162.413 109.186 162.451 103.181C162.482 98.8967 164.184 95.894 167.532 94.9158C171.216 93.8324 175.174 94.8477 176.964 98.2095C177.269 98.7914 177.419 100.11 177.269 100.172C176.315 100.556 175.28 100.729 174.588 99.5406C173.454 97.5966 171.671 96.866 169.464 97.0827C169.209 97.1075 168.947 97.1384 168.704 97.2127C166.509 97.8875 165.194 99.912 165.181 102.63C165.169 105.397 166.409 107.44 168.541 108.152C170.811 108.908 173.03 108.19 174.495 106.023C175.374 104.716 176.452 105.304 177.699 105.311V105.304Z" fill="black"/>
<path d="M211.213 171.506C210.795 174.942 207.535 177.332 203.601 177.22C199.649 177.109 196.339 174.051 196.152 170.323C195.89 165.08 198.197 161.452 202.124 160.919C206.93 160.269 210.328 162.225 211.269 166.188C209.823 167.017 209.044 166.875 208.171 165.624C206.762 163.612 204.512 162.776 202.348 163.464C200.297 164.114 198.895 166.064 198.876 168.435C198.87 169.345 198.926 170.293 199.169 171.165C199.661 172.93 200.865 174.156 202.685 174.496C204.736 174.88 206.756 174.502 207.897 172.614C208.807 171.104 209.948 171.456 211.213 171.506Z" fill="black"/>
<path d="M91.0034 110.493C88.4101 110.976 88.3477 110.982 87.5934 108.753C87.2318 107.676 86.7144 107.087 85.4926 107.261C84.8816 107.348 84.2395 107.354 83.6286 107.261C81.5028 106.933 80.1376 107.49 79.6389 109.83C79.3147 111.359 77.8809 110.486 76.6715 110.709C76.8274 110.053 76.8959 109.57 77.0643 109.124C78.6726 104.846 80.3246 100.587 81.908 96.2964C82.2634 95.3368 82.7247 94.922 83.8094 94.9405C84.838 94.9591 85.3741 95.2253 85.7419 96.2407C87.3378 100.63 89.0272 104.989 90.6792 109.36C90.8039 109.688 90.8725 110.034 91.0034 110.499V110.493ZM86.116 104.834C85.3492 102.748 84.651 100.822 83.8094 98.5252L81.5589 104.834H86.116Z" fill="black"/>
<path d="M166.416 176.701C163.984 177.283 163.76 177.215 163.049 175.06C162.669 173.908 162.114 173.302 160.83 173.512C160.325 173.593 159.789 173.587 159.278 173.512C157.096 173.203 155.556 173.624 155.014 176.162C154.69 177.673 153.243 176.744 152.084 176.886C152.246 176.286 152.321 175.846 152.477 175.431C154.085 171.153 155.737 166.894 157.308 162.603C157.682 161.576 158.206 161.192 159.328 161.192C160.431 161.192 160.836 161.65 161.185 162.585C162.763 166.875 164.415 171.135 166.035 175.407C166.191 175.828 166.291 176.267 166.416 176.707V176.701ZM156.971 171.073H161.547C160.78 168.98 160.076 167.067 159.24 164.789C158.418 167.073 157.744 168.937 156.971 171.073Z" fill="black"/>
<path d="M59.1728 176.737C56.7291 177.239 56.6356 177.227 55.8875 174.992C55.5259 173.914 55.0085 173.376 53.7866 173.493C52.6583 173.605 51.4988 173.599 50.3704 173.493C49.2172 173.388 48.7122 173.896 48.3569 174.905C47.5714 177.14 47.534 177.128 44.9781 176.768C45.0965 176.292 45.1713 175.815 45.3396 175.369C46.9854 170.998 48.6748 166.64 50.2894 162.263C50.6323 161.34 51.2058 161.179 52.0661 161.204C52.8703 161.229 53.556 161.192 53.9113 162.164C55.5883 166.739 57.3338 171.295 59.0419 175.858C59.1416 176.131 59.1354 176.44 59.179 176.725L59.1728 176.737ZM52.0972 164.739C51.2993 166.999 50.5949 168.98 49.8717 171.035H54.3789C53.6059 168.893 52.9014 166.949 52.0972 164.739Z" fill="black"/>
<path d="M99.4068 161.093C99.4068 164.882 99.5938 168.596 99.3507 172.28C99.1388 175.468 96.3522 177.425 92.9609 177.227C89.6631 177.035 87.4127 174.8 87.369 171.568C87.3192 168.076 87.3566 164.591 87.3566 161.012H89.9499C89.9499 162.721 89.9374 164.355 89.9499 165.99C89.9686 167.791 89.9561 169.599 90.0683 171.401C90.1993 173.555 91.3463 174.571 93.4534 174.564C95.4607 174.564 96.6327 173.537 96.72 171.457C96.8384 168.627 96.8135 165.786 96.8384 162.95C96.8634 160.795 96.9382 160.734 99.4068 161.086V161.093Z" fill="black"/>
<path d="M132.123 108.883V110.679C129.261 110.679 126.437 110.703 123.613 110.635C123.376 110.635 122.959 110.01 122.952 109.669C122.909 105.038 122.903 100.401 122.965 95.7704C122.965 95.4051 123.57 94.7427 123.913 94.7303C126.593 94.6436 129.274 94.6808 131.917 94.6808C132.366 96.7672 132.247 96.9343 130.402 96.9653C129.835 96.9777 129.261 96.9653 128.694 96.9653C125.54 96.9653 124.966 97.6525 125.677 100.742C125.752 101.058 126.356 101.441 126.743 101.472C127.927 101.571 129.124 101.522 130.315 101.51C131.119 101.503 131.555 101.77 131.562 102.673C131.562 103.584 131.119 103.837 130.315 103.825C129.124 103.813 127.927 103.85 126.737 103.825C125.97 103.813 125.658 104.085 125.602 104.896C125.353 108.586 125.328 108.586 129.062 108.586C129.941 108.586 130.82 108.611 131.705 108.642C131.836 108.642 131.967 108.778 132.123 108.865V108.883Z" fill="black"/>
<path d="M220.146 176.824C220.146 174.75 220.146 172.751 220.146 170.757C220.146 167.921 220.177 165.086 220.134 162.25C220.115 161.247 220.477 160.882 221.493 160.907C223.725 160.956 225.956 160.944 228.194 160.913C228.998 160.901 229.441 161.093 229.441 162.021C229.441 162.944 228.955 163.185 228.188 163.198C226.835 163.216 225.489 163.241 224.136 163.21C223.22 163.191 222.839 163.526 222.858 164.473C222.939 168.472 222.415 167.668 225.963 167.754C226.536 167.767 227.166 167.618 227.658 167.81C228.107 167.983 228.699 168.522 228.705 168.912C228.712 169.29 228.101 169.965 227.696 170.014C226.467 170.169 225.208 170.101 223.961 170.076C223.17 170.064 222.902 170.392 222.852 171.178C222.615 174.843 222.59 174.843 226.199 174.843C227.178 174.843 228.157 174.843 229.279 174.843V176.824H220.152H220.146Z" fill="black"/>
<path d="M154.372 127.797C154.802 129.889 154.683 130.057 152.801 130.088C151.554 130.106 150.313 130.118 149.067 130.088C148.194 130.069 147.72 130.304 147.745 131.301C147.838 135.338 147.227 134.65 151.049 134.731C151.616 134.743 152.246 134.619 152.738 134.824C153.131 134.985 153.605 135.56 153.586 135.932C153.567 136.297 153.013 136.904 152.639 136.941C151.41 137.071 150.151 137.034 148.911 136.991C148.019 136.96 147.726 137.325 147.745 138.179C147.789 139.975 147.757 141.77 147.757 143.689H145.326C145.264 143.194 145.164 142.742 145.164 142.29C145.152 138.012 145.177 133.74 145.145 129.462C145.139 128.261 145.482 127.704 146.835 127.76C149.36 127.859 151.89 127.791 154.372 127.791V127.797Z" fill="black"/>
<path d="M198.072 94.9223C197.885 95.4052 197.729 95.8757 197.517 96.3215C197.13 97.1078 196.725 97.8817 196.301 98.6432C194.238 102.321 191.863 105.912 193.141 110.382C190.554 111.044 190.092 110.84 190.342 108.592C190.703 105.398 189.444 102.797 187.942 100.185C186.975 98.507 186.121 96.7734 185.199 95.0337C187.543 94.2908 187.998 94.458 188.945 96.2844C189.843 98.0117 190.728 99.7452 191.732 101.683C192.686 99.7947 193.54 98.1107 194.4 96.4267C195.404 94.4456 195.572 94.3775 198.078 94.9285L198.072 94.9223Z" fill="black"/>
<path d="M70.0884 172.255C70.0884 171.742 70.0074 171.209 70.1196 170.72C70.1882 170.398 70.5373 169.884 70.7555 169.884C71.9836 169.89 73.2366 169.903 74.4273 170.157C75.5556 170.392 76.1728 171.345 76.0793 172.46C75.992 173.556 75.3063 174.336 74.1281 174.546C73.8226 174.602 73.5234 174.664 73.2179 174.726C70.3939 175.295 70.076 175.041 70.0884 172.255Z" fill="white"/>
<path d="M70.076 165.458C70.076 163.992 70.6931 163.26 71.9275 163.26C74.6018 163.26 75.8736 163.996 75.7988 165.495C75.724 167.012 74.4959 167.73 71.9898 167.73C70.7139 167.73 70.076 166.974 70.076 165.464V165.458Z" fill="white"/>
<path d="M128.513 130.193C131.58 130.211 133.743 132.62 133.662 135.932C133.581 139.331 131.468 141.523 128.32 141.485C125.284 141.448 123.164 139.17 123.139 135.907C123.108 132.546 125.334 130.18 128.513 130.199V130.193Z" fill="white"/>
<path d="M133.407 168.931C133.407 167.439 133.426 165.94 133.401 164.448C133.388 163.699 133.606 163.26 134.454 163.315C135.483 163.39 136.543 163.297 137.534 163.52C140.601 164.207 142.078 166.417 141.711 169.562C141.33 172.769 139.479 174.509 136.312 174.534C132.84 174.565 133.475 174.88 133.413 171.71C133.394 170.782 133.413 169.853 133.413 168.931H133.407Z" fill="white"/>
<path d="M86.116 104.834H81.559L83.8095 98.5254C84.651 100.828 85.3555 102.748 86.116 104.834Z" fill="white"/>
<path d="M156.971 171.073C157.744 168.937 158.418 167.074 159.24 164.789C160.076 167.067 160.78 168.987 161.547 171.073H156.971Z" fill="white"/>
<path d="M52.0972 164.739C52.9014 166.956 53.6059 168.9 54.3789 171.036H49.8717C50.6011 168.98 51.2993 166.999 52.0972 164.739Z" fill="white"/>
</g>
<defs>
<clipPath id="clip0_19_9326">
<rect width="277" height="274" fill="white"/>
</clipPath>
</defs>
</svg>
