<svg width="321" height="71" viewBox="0 0 321 71" fill="none" xmlns="http://www.w3.org/2000/svg">
<path d="M205.715 0.991394C203.363 2.20274 200.94 5.05296 200.37 7.22626L199.907 9.00764H197.556C191.606 9.00764 185.87 11.8222 183.447 15.9907C183.055 16.632 183.02 16.632 182.129 15.7413C180.348 13.9955 176.286 13.4611 172.759 14.6012C170.015 15.4563 167.735 17.3445 166.31 19.9097L165.134 22.1187L163.602 21.5843C159.755 20.2304 153.662 22.0118 151.026 25.2539C150.313 26.1446 149.458 26.8215 149.173 26.7503C148.817 26.679 148.461 25.8596 148.176 24.3988C146.964 18.4134 142.796 15.0644 136.597 15.0644C134.851 15.0644 134.851 15.0644 135.1 14.0668C135.599 12.3567 135.35 9.22141 134.566 7.72504C133.069 4.76794 130.896 3.3072 127.512 3.02218C124.875 2.80841 123.343 3.27157 121.17 4.94608C118.854 6.69184 117.999 8.54448 117.928 11.8579L117.856 14.53L116.324 14.7793C115.469 14.9219 114.009 15.4563 113.047 15.9551C111.443 16.7745 111.301 16.8101 111.123 16.2401C110.125 13.1405 106.741 10.1834 103 9.18578C98.653 8.01007 94.6271 9.00764 91.5631 12.0716C89.9242 13.7105 88.5347 16.7389 88.5347 18.6271V19.696L86.3971 19.4466C83.2618 19.1259 81.2667 19.8029 79.1646 21.9049L77.4545 23.615L75.6018 23.1162C72.2172 22.1543 70.1508 22.083 67.4787 22.7243C63.0252 23.8288 59.9613 26.6434 58.6786 30.8119L58.0017 32.9495L56.1491 33.092C55.1159 33.1633 53.4057 33.6621 52.3725 34.1609C50.5555 35.0159 48.2753 37.118 48.2753 37.9018C48.2753 38.4006 50.5199 38.0087 51.9094 37.2961C53.5126 36.4767 54.0827 36.6904 56.2203 38.935L58.2511 41.1083L58.1799 37.8662C58.1086 36.1204 58.1799 34.6597 58.358 34.6597C58.5005 34.6597 58.6074 34.4103 58.6074 34.0896C58.6074 33.1277 62.5977 33.5552 63.7378 34.624C64.2722 35.1228 64.8066 35.3366 65.056 35.1941C65.341 34.9803 65.4123 35.0516 65.2342 35.3366C65.056 35.586 65.1985 36.0491 65.5192 36.4054C67.1581 38.2224 67.6925 43.6022 66.4811 46.2743C66.0892 47.0938 65.1273 48.3764 64.3435 49.1245C63.524 49.9083 62.8827 50.6922 62.8827 50.9059C62.8827 51.4047 66.5524 54.8606 68.2982 56.0363C69.0463 56.5351 69.652 57.0339 69.652 57.1764C69.652 57.3546 68.8682 57.4614 67.9419 57.4614C65.8755 57.4614 64.3791 56.4639 62.4908 53.8274C61.8139 52.9367 61.137 52.2598 60.9945 52.3667C60.8519 52.4735 60.7451 53.4355 60.7807 54.54C60.8519 57.4971 60.8876 57.4614 59.4981 57.4614H58.2867L58.1799 51.8322C58.1086 48.7683 58.2155 45.7755 58.3936 45.2411C58.5361 44.7067 58.6074 44.1366 58.5005 44.0298C58.1442 43.7091 50.4843 46.4168 46.9215 48.1982C43.3587 49.944 40.4016 51.9391 36.7676 55.0744C34.6299 56.927 33.3473 58.5659 34.6299 57.889C34.9862 57.6752 36.6251 56.5351 38.2996 55.3594C39.9741 54.1481 41.4704 53.1861 41.6486 53.1861C42.0048 53.1861 41.6486 56.7489 40.7579 61.9149C40.0097 66.2259 39.8316 66.4753 36.8744 67.9716C35.1643 68.8267 30.7821 69.9312 29.1432 69.9312C27.9319 69.8955 26.1861 68.4704 26.1861 67.4728C26.1861 67.0809 26.008 66.6534 25.8298 66.5465C25.6161 66.404 25.5804 66.1546 25.6873 65.9409C25.8298 65.7271 25.7586 65.4777 25.5448 65.3352C25.2954 65.1927 25.1173 63.0906 25.046 59.7416C24.9391 53.7918 24.6541 54.6825 27.825 50.7634L28.7869 49.5521L27.3262 50.3003C25.4736 51.2622 24.3335 52.8655 23.8703 55.2881C23.4784 57.1764 23.4428 57.2477 21.8039 57.7821C17.101 59.3497 13.3601 64.5157 13.3601 69.468V71H166.524C269.595 71 319.795 70.8931 319.937 70.6437C320.4 69.8955 319.047 66.5109 317.657 64.9076C315.662 62.5918 312.954 61.3805 309.89 61.3805C308.572 61.3805 307.004 61.5586 306.363 61.808C305.259 62.1999 305.116 62.1643 304.439 61.2736C304.047 60.7748 303.406 60.2404 303.014 60.1335C301.874 59.7772 302.016 56.8914 303.228 55.6444C303.762 55.0744 304.225 54.1124 304.332 53.2574C304.51 51.9748 304.404 51.6541 303.442 50.6922C302.159 49.4452 300.698 49.3027 299.416 50.3003C298.596 50.9416 298.418 50.9416 296.779 50.4428L294.998 49.8727V46.9869C294.962 44.4573 294.855 43.8516 294 42.4265C292.076 39.1131 288.62 37.2249 285.378 37.688C284.024 37.9018 283.811 37.8305 283.597 37.1892C283.383 36.4767 281.815 35.0159 281.281 35.0159C281.103 35.0159 280.782 36.4054 280.569 38.1156C280.105 41.1795 279.5 42.854 279.5 41.0014C279.5 40.467 279.357 39.9682 279.215 39.8613C279.036 39.7544 278.965 39.1844 279.001 38.6143C279.036 38.0087 278.93 37.5099 278.787 37.5099C278.645 37.5099 278.573 36.8686 278.68 36.0848C278.894 34.4459 278.466 34.2677 276.507 35.1941C275.331 35.7641 275.331 35.7641 273.942 34.3746C273.194 33.6264 272.267 32.8426 271.875 32.6289C271.234 32.2726 271.234 32.1657 272.232 30.1706C273.585 27.4272 273.692 23.5438 272.481 21.2992C271.483 19.3753 268.918 17.0595 267.172 16.4539C263.574 15.2069 258.657 16.3826 256.983 18.8765C256.448 19.6604 255.985 19.981 255.629 19.8385C254.097 19.1616 251.425 19.2684 249.608 20.0523L247.755 20.8717L246.793 19.981C244.798 18.0927 243.622 17.7365 239.418 17.7365C235.713 17.7365 235.357 17.8077 233.112 18.9122C231.545 19.6604 230.155 20.6936 229.051 21.9405C227.483 23.6863 227.376 23.7575 226.984 23.0806C226.236 21.7268 222.887 18.734 221.284 17.9502C220.393 17.5583 218.897 17.0239 217.97 16.7745C217.009 16.5251 216.189 16.2757 216.118 16.2401C216.011 16.1688 216.438 15.5988 217.08 14.9575C218.612 13.3899 219.289 11.5372 219.289 9.00764C219.289 5.40924 217.009 1.95335 213.731 0.599487C211.771 -0.219955 207.638 -0.00618744 205.715 0.991394ZM132.963 12.998C132.856 13.2474 132.784 13.0692 132.784 12.5704C132.784 12.0716 132.856 11.8935 132.963 12.1073C133.034 12.3567 133.034 12.7842 132.963 12.998ZM247.577 33.4127C247.827 34.624 249.679 39.2556 252.316 45.1699C252.993 46.7375 253.598 48.0557 253.634 48.0913C253.634 48.127 253.67 44.8136 253.67 40.7876V33.4127L254.845 33.3058L255.985 33.1989V45.6686C255.985 52.5448 255.878 58.174 255.736 58.174C255.558 58.174 255.202 57.5683 254.881 56.8201C253.67 54.0768 253.171 52.9367 252.173 50.6922C251.567 49.4096 250.712 47.2719 250.249 45.918L249.394 43.4241L249.287 50.4428L249.216 57.4614H248.005C247.292 57.4614 246.722 57.2477 246.615 56.9627C246.366 56.3214 246.366 33.2702 246.615 32.6289C246.936 31.8094 247.363 32.1301 247.577 33.4127ZM79.2003 34.5528C79.9128 36.5479 84.4732 47.45 84.6869 47.6994C84.7582 47.7707 84.8294 44.5642 84.7938 40.6095V33.4127H85.9695H87.1809L87.1453 45.8824C87.1096 52.7229 87.0384 58.3878 86.9671 58.4234C86.9315 58.4946 86.3258 57.2833 85.6845 55.7513C85.0432 54.2549 83.9744 51.8679 83.3687 50.514C82.7274 49.1245 81.9436 47.165 81.5873 46.1674C81.2667 45.1342 80.8391 44.2079 80.661 44.101C80.4829 43.9585 80.3403 46.595 80.3403 50.6209V57.3902L79.0934 57.5327L77.8464 57.6752V45.0986C77.8464 37.7949 77.9889 32.522 78.1671 32.522C78.3452 32.522 78.8083 33.4483 79.2003 34.5528ZM130.077 38.4718C130.718 41.5714 131.644 46.0249 132.179 48.3764C132.678 50.7278 133.248 53.4355 133.461 54.4331C133.64 55.395 133.889 56.4995 133.996 56.8201C134.138 57.3546 133.96 57.4614 132.749 57.4614C131.181 57.4614 131.252 57.604 130.647 53.3642L130.397 51.5829L128.759 51.476C127.725 51.4047 127.013 51.5472 126.763 51.8322C126.585 52.0816 126.193 53.4711 125.944 54.8606L125.481 57.4614H124.127H122.773L122.951 56.1076C123.058 55.395 123.307 54.3974 123.45 53.8987C123.628 53.3999 123.878 52.4379 123.984 51.761C124.269 50.1221 125.16 46.2031 125.588 44.6354C125.766 43.9585 126.443 41.0727 127.048 38.2224C128.188 32.8783 128.367 32.3438 128.723 32.6645C128.83 32.7714 129.435 35.4078 130.077 38.4718ZM144.755 35.0159C145.682 37.6168 149.85 47.5925 150.135 47.9132C150.242 48.0557 150.349 44.8492 150.349 40.7876V33.4127L151.525 33.3058L152.665 33.1989V45.7399C152.665 56.3926 152.593 58.2096 152.166 57.8533C151.881 57.6396 151.489 56.927 151.24 56.2857C150.99 55.6444 150.67 54.825 150.491 54.4331C150.313 54.0412 150.028 53.2574 149.815 52.7229C149.601 52.1529 149.28 51.8322 149.066 51.9391C148.853 52.0816 148.746 51.9748 148.817 51.7254C148.853 51.4403 148.283 49.5521 147.499 47.4857L146.074 43.7447L145.967 50.6209L145.895 57.4971L144.542 57.3902L143.223 57.2833L143.117 45.348C143.081 38.7925 143.117 33.1989 143.223 32.9139C143.508 32.2013 143.9 32.7714 144.755 35.0159ZM100.648 45.348V57.4614H99.4368C98.7599 57.4614 98.083 57.2833 97.9405 57.0695C97.8336 56.8558 97.7267 51.5472 97.7623 45.2411C97.798 32.9851 97.7623 33.2345 99.6862 33.2345H100.648V45.348ZM166.88 33.9471C168.662 34.8378 170.158 36.6548 171.013 39.0062C171.583 40.5382 171.726 41.8208 171.726 45.7043C171.726 50.4071 171.69 50.5853 170.586 52.8655C169.802 54.4687 168.982 55.5019 168.092 56.1432C166.631 57.1052 163.923 57.9959 163.353 57.6396C162.961 57.3902 162.854 33.8758 163.246 33.4839C163.709 33.0208 165.526 33.2345 166.88 33.9471ZM201.225 33.5196C201.332 33.6621 201.332 34.1965 201.225 34.7665C201.047 35.6572 200.905 35.7285 199.302 35.7285H197.556V42.854V49.944L199.337 49.7302C201.083 49.5164 201.119 49.5521 201.119 50.4428C201.119 51.2978 200.976 51.3691 199.444 51.476L197.734 51.5829L197.627 54.54L197.52 57.4971L196.202 57.3902L194.884 57.2833L194.848 45.8824C194.812 39.505 194.919 34.1965 195.097 33.8402C195.382 33.3414 195.953 33.2345 198.268 33.2345C199.8 33.2345 201.154 33.3414 201.225 33.5196ZM214.693 33.769C217.757 34.8734 219.645 38.1868 219.645 42.4621C219.645 45.4192 218.719 47.4857 216.581 49.4808L215.013 50.9772L217.65 53.3642C219.111 54.6825 220.821 56.0363 221.391 56.3214C223.03 57.1052 222.745 57.4614 220.536 57.4614C218.719 57.4614 218.434 57.3546 216.973 56.0007C216.082 55.1813 215.013 53.9343 214.586 53.2217L213.766 51.9391L213.588 54.6112L213.41 57.2833L212.092 57.3902C210.987 57.4971 210.738 57.3902 210.738 56.8558C210.631 51.0841 210.809 33.769 210.952 33.5552C211.237 33.0564 212.983 33.1633 214.693 33.769ZM236.746 34.5171V35.7285H234.965H233.184V42.854V50.0152L235.001 49.7658L236.818 49.5164L236.675 50.5496C236.604 51.4047 236.426 51.5472 235.713 51.476C235.25 51.4047 234.502 51.4403 234.039 51.5472C233.29 51.761 233.184 51.9748 233.184 53.578V55.395L235.143 55.2525L237.103 55.11V56.2857V57.4971L233.825 57.3902L230.511 57.2833L230.405 45.7399C230.369 39.3625 230.405 33.9471 230.511 33.6977C230.618 33.3414 231.438 33.2345 233.718 33.2702L236.746 33.3414V34.5171ZM271.947 33.8046C272.517 33.9827 272.73 34.3034 272.73 34.9803C272.73 35.871 272.624 35.9423 271.519 35.7997C269.631 35.586 268.455 36.9042 268.455 39.2556C268.455 40.7876 268.669 41.3221 270.058 43.2816C273.621 48.3051 274.405 50.229 273.942 52.7586C273.407 55.8226 271.448 57.4614 268.348 57.4614C266.567 57.4614 265.783 56.8201 266.139 55.6801C266.353 55.0031 266.602 54.9319 267.849 55.0744C269.096 55.2169 269.453 55.11 270.308 54.2549C272.053 52.4735 271.59 49.1958 269.096 45.9893C268.455 45.1342 267.814 44.386 267.707 44.2792C267.6 44.1723 267.101 43.3885 266.602 42.4978C263.966 37.8305 267.208 32.5576 271.947 33.8046ZM149.138 41.5358C148.781 41.8565 148.746 41.8208 148.959 41.3221C149.066 40.9658 149.28 40.7876 149.387 40.8945C149.494 41.0014 149.387 41.2864 149.138 41.5358Z" fill="white"/>
<path d="M128.473 42.5328C128.366 43.1741 127.333 48.4826 127.155 49.1596C127.048 49.8009 127.155 49.979 127.725 49.979C128.117 49.979 128.723 49.694 129.079 49.3377C129.649 48.8033 129.649 48.4826 129.257 46.0599C128.758 43.2097 128.544 42.1765 128.473 42.5328Z" fill="white"/>
<path d="M165.848 45.491C165.848 52.2602 165.955 55.2886 166.204 55.1461C166.917 54.7185 168.199 52.2959 168.734 50.5145C169.553 47.6642 169.339 41.75 168.306 38.9711C167.807 37.6885 167.095 36.4771 166.667 36.1565L165.848 35.6577V45.491Z" fill="white"/>
<path d="M213.589 42.4983C213.589 46.2036 213.696 49.2676 213.803 49.2676C214.088 49.2676 215.335 47.7356 215.37 47.3437C215.37 47.1655 215.62 46.8449 215.905 46.6311C216.796 45.9542 217.294 42.5696 216.796 40.2181C216.404 38.2942 214.765 35.729 213.91 35.729C213.732 35.729 213.589 38.7574 213.589 42.4983Z" fill="white"/>
<path d="M50.9121 18.199C48.7032 19.3391 45.6748 21.1918 44.1784 22.3319C41.4707 24.4339 37.2667 29.1368 35.8059 31.7376C34.9509 33.234 34.4521 33.4833 29.9273 34.6234C20.5572 36.9392 11.3296 37.0461 6.44863 34.8728C0.463161 32.2007 0.249394 27.961 5.84296 22.1181C6.73365 21.1918 7.37495 20.3723 7.26807 20.2654C7.19681 20.1942 5.94984 20.7286 4.4891 21.4412C2.13767 22.5812 1.71013 22.9375 0.926322 24.5051C0.106883 26.0728 0 26.7141 0 29.8493C0 33.9109 0.427533 35.1579 2.63646 37.438C6.27049 41.1433 12.6479 42.8891 20.1297 42.1409C23.2649 41.8202 28.0034 41.0364 32.35 40.1457C33.2407 39.9676 33.312 40.0389 33.312 41.0008C33.312 42.2834 34.4877 43.851 35.8772 44.4567L36.9104 44.8842L33.7751 47.1644C30.1411 49.8009 26.8633 53.0074 26.0439 54.7531C25.7233 55.4301 25.4739 56.5701 25.4739 57.2827C25.4739 58.9216 26.6852 63.8738 27.754 66.6172L28.5735 68.6836L30.6755 68.648C32.2788 68.6123 33.4189 68.3273 35.4496 67.3654C36.9104 66.6884 38.2999 65.9046 38.5136 65.6196C39.048 64.9783 40.6869 55.6795 40.2594 55.6795C40.1881 55.6795 39.0124 56.392 37.6942 57.2471C34.7371 59.1353 30.818 61.1305 30.5686 60.8811C30.248 60.5961 32.7776 57.6034 35.5922 54.86C38.478 52.1167 41.257 50.0146 44.4635 48.162C46.9574 46.7725 54.2611 43.7085 56.0425 43.3522C56.6838 43.2097 57.2895 42.9603 57.3964 42.8178C57.5032 42.6397 56.8263 41.6065 55.9 40.502C54.2611 38.6137 54.1186 38.5069 52.9072 38.7563C46.6368 39.8963 41.1857 40.2526 39.5825 39.647C37.9436 39.0413 38.5136 38.3287 41.9695 36.6898C48.6319 33.5546 54.2611 28.9942 57.5389 24.0776C59.7122 20.7999 59.7834 19.9448 58.002 18.199C56.8263 17.1302 55.3656 16.097 54.9737 16.1326C54.9024 16.1682 53.0854 17.0946 50.9121 18.199ZM52.4441 23.1157C50.057 26.1797 42.5752 31.9157 41.8983 31.2388C41.3995 30.74 53.0854 20.7999 53.5842 21.2986C53.6554 21.4055 53.1566 22.225 52.4441 23.1157Z" fill="white"/>
<path d="M60.9596 35.9784C60.639 36.2991 60.7102 49.2676 61.0309 49.2676C61.4584 49.2676 63.2398 47.3437 63.2398 46.8449C63.2398 46.5955 63.3823 46.4174 63.5248 46.4174C63.703 46.4174 64.0593 45.5267 64.3086 44.4578C65.0568 41.2513 63.8811 37.1898 61.8503 36.0853C61.4941 35.9072 61.1021 35.8715 60.9596 35.9784Z" fill="white"/>
<path d="M40.2956 38.1865C39.6543 38.4359 39.6543 38.4715 40.2243 38.6853C41.0438 39.0059 42.7183 39.0059 44.9272 38.6853C46.4236 38.4715 46.5304 38.4003 45.7823 38.1865C44.6065 37.8659 41.1506 37.8659 40.2956 38.1865Z" fill="white"/>
<path d="M31.0319 44.3503C28.6448 48.4475 28.8942 49.2313 31.8513 47.0224L34.3096 45.2053L33.4546 44.3859C32.9914 43.9584 32.5995 43.4239 32.5995 43.2102C32.5995 42.3907 31.8513 42.9252 31.0319 44.3503Z" fill="white"/>
</svg>
