<svg width="132" height="28" viewBox="0 0 132 28" fill="red" xmlns="http://www.w3.org/2000/svg">
<path fill-rule="evenodd" clip-rule="evenodd" d="M31.0641 4L27.1738 23.5683H21.7829L16.1975 14.4551L14.3913 23.5683H8L11.8903 4H17.2812L22.8666 13.1132L24.6728 4H31.0641ZM39.7815 8.97594L39.2986 11.2229H46.4927L45.4923 16.1988H38.326L36.8915 23.5683H30.3336L34.2239 4H49.2993L48.2989 8.97594H39.7815ZM49.7418 9.11572H55.4383L52.5762 23.5683H59.1341L61.9963 9.11572H67.6929L68.721 4H50.7699L49.7418 9.11572ZM70.6302 23.9999C69.6745 23.9999 68.7765 23.8953 67.9362 23.6862C67.096 23.466 66.4028 23.1798 65.8567 22.8276L67.2903 19.9546C68.4771 20.6701 69.7165 21.0278 71.0083 21.0278C71.4809 21.0278 71.8433 20.9673 72.0954 20.8462C72.3474 20.7251 72.4735 20.56 72.4735 20.3509C72.4735 20.1527 72.3422 19.9931 72.0796 19.872C71.8275 19.751 71.4232 19.6189 70.8665 19.4758C70.1313 19.2776 69.5222 19.0795 69.039 18.8814C68.5559 18.6722 68.1305 18.3585 67.763 17.9402C67.4059 17.5109 67.2273 16.9495 67.2273 16.2561C67.2273 15.3865 67.4479 14.6269 67.889 13.9775C68.3406 13.317 68.9865 12.8107 69.8268 12.4584C70.667 12.0952 71.6595 11.9136 72.8043 11.9136C73.6235 11.9136 74.385 12.0016 75.0887 12.1778C75.8029 12.3429 76.4173 12.585 76.9319 12.9043L75.5928 15.7442C75.1622 15.458 74.6843 15.2434 74.1592 15.1003C73.6445 14.9572 73.1141 14.8856 72.568 14.8856C72.0534 14.8856 71.6542 14.9627 71.3707 15.1168C71.0871 15.2709 70.9453 15.4525 70.9453 15.6617C70.9453 15.8708 71.0713 16.0359 71.3234 16.157C71.586 16.2781 72.0113 16.4102 72.5995 16.5533C73.3137 16.7294 73.9124 16.9165 74.3955 17.1146C74.8891 17.3128 75.3145 17.621 75.6716 18.0393C76.0287 18.4576 76.2072 19.0079 76.2072 19.6904C76.2072 20.549 75.9814 21.303 75.5298 21.9525C75.0782 22.6019 74.4322 23.1083 73.592 23.4715C72.7518 23.8238 71.7645 23.9999 70.6302 23.9999ZM80.4681 15.1993H77.2385L77.8214 12.1778H87.9986L87.4157 15.1993H84.1861L82.5634 23.7357H78.8454L80.4681 15.1993ZM90.0332 21.7213H94.2395L94.6019 23.7357H98.3041L95.6889 12.1778H92.0339L85.0076 23.7357H88.9304L90.0332 21.7213ZM93.184 15.9589L93.7196 18.9144H91.5613L93.184 15.9589ZM105.014 23.9999C103.89 23.9999 102.898 23.7852 102.036 23.3559C101.186 22.9156 100.524 22.3047 100.051 21.5232C99.5891 20.7416 99.3581 19.8445 99.3581 18.8318C99.3581 17.4889 99.6521 16.2946 100.24 15.2489C100.839 14.2031 101.663 13.3886 102.714 12.8052C103.774 12.2108 104.977 11.9136 106.321 11.9136C107.382 11.9136 108.322 12.1172 109.141 12.5245C109.961 12.9208 110.57 13.4877 110.969 14.2252L108.291 16.4212C107.797 15.5186 107.062 15.0672 106.085 15.0672C105.507 15.0672 104.993 15.2158 104.541 15.513C104.09 15.8103 103.738 16.2285 103.486 16.7679C103.234 17.2963 103.108 17.9017 103.108 18.5842C103.108 19.2666 103.312 19.817 103.722 20.2353C104.142 20.6426 104.693 20.8462 105.376 20.8462C106.311 20.8462 107.13 20.4004 107.834 19.5088L110.024 21.7048C109.383 22.5304 108.653 23.1193 107.834 23.4715C107.025 23.8238 106.085 23.9999 105.014 23.9999ZM122.062 23.7357L118.47 17.4449L124 12.1778H119.73L115.54 16.2726L116.328 12.1778H112.673L110.467 23.7357H114.122L114.642 20.9783L115.682 19.9711L117.919 23.7357H122.062Z" fill="black"/>
</svg>
