<svg width="190" height="42" viewBox="0 0 190 42" fill="none" xmlns="http://www.w3.org/2000/svg">
<path d="M121.558 0.631573C120.168 1.34736 118.737 3.03157 118.4 4.31578L118.126 5.36842H116.737C113.221 5.36842 109.831 7.03157 108.4 9.49473C108.168 9.87368 108.147 9.87368 107.621 9.34736C106.568 8.31578 104.168 8 102.084 8.67368C100.463 9.17894 99.1156 10.2947 98.2735 11.8105L97.5787 13.1158L96.6735 12.8C94.3998 12 90.7998 13.0526 89.2419 14.9684C88.8209 15.4947 88.3156 15.8947 88.1472 15.8526C87.9366 15.8105 87.7261 15.3263 87.5577 14.4632C86.8419 10.9263 84.3787 8.94736 80.7156 8.94736C79.684 8.94736 79.684 8.94736 79.8314 8.35789C80.1261 7.34736 79.9787 5.49473 79.5156 4.61052C78.6314 2.86315 77.3472 2 75.3472 1.83157C73.7893 1.70526 72.884 1.97894 71.5998 2.96841C70.2314 4 69.7261 5.09473 69.684 7.05263L69.6419 8.63157L68.7366 8.77894C68.2314 8.86316 67.3682 9.17894 66.7998 9.47368C65.8524 9.95789 65.7682 9.97894 65.663 9.6421C65.0735 7.81052 63.0735 6.06315 60.863 5.47368C58.2945 4.77894 55.9156 5.36842 54.1051 7.17894C53.1366 8.14737 52.3156 9.93684 52.3156 11.0526V11.6842L51.0524 11.5368C49.1998 11.3474 48.0208 11.7474 46.7787 12.9895L45.7682 14L44.6735 13.7053C42.6735 13.1368 41.4524 13.0947 39.8735 13.4737C37.2419 14.1263 35.4314 15.7895 34.6735 18.2526L34.2735 19.5158L33.1787 19.6C32.5682 19.6421 31.5577 19.9368 30.9472 20.2316C29.8735 20.7368 28.5261 21.9789 28.5261 22.4421C28.5261 22.7368 29.8524 22.5053 30.6735 22.0842C31.6208 21.6 31.9577 21.7263 33.2208 23.0526L34.4208 24.3368L34.3787 22.421C34.3366 21.3895 34.3787 20.5263 34.484 20.5263C34.5682 20.5263 34.6314 20.3789 34.6314 20.1895C34.6314 19.621 36.9893 19.8737 37.663 20.5053C37.9787 20.8 38.2945 20.9263 38.4419 20.8421C38.6103 20.7158 38.6524 20.7579 38.5472 20.9263C38.4419 21.0737 38.5261 21.3474 38.7156 21.5579C39.684 22.6316 39.9998 25.8105 39.284 27.3895C39.0524 27.8737 38.484 28.6316 38.0208 29.0737C37.5366 29.5368 37.1577 30 37.1577 30.1263C37.1577 30.4211 39.3261 32.4632 40.3577 33.1579C40.7998 33.4526 41.1577 33.7474 41.1577 33.8316C41.1577 33.9368 40.6945 34 40.1472 34C38.9261 34 38.0419 33.4105 36.9261 31.8526C36.5261 31.3263 36.1261 30.9263 36.0419 30.9895C35.9577 31.0526 35.8945 31.6211 35.9156 32.2737C35.9577 34.0211 35.9787 34 35.1577 34H34.4419L34.3787 30.6737C34.3366 28.8632 34.3998 27.0947 34.5051 26.7789C34.5893 26.4632 34.6314 26.1263 34.5682 26.0632C34.3577 25.8737 29.8314 27.4737 27.7261 28.5263C25.6208 29.5579 23.8735 30.7368 21.7261 32.5895C20.463 33.6842 19.7051 34.6526 20.463 34.2526C20.6735 34.1263 21.6419 33.4526 22.6314 32.7579C23.6208 32.0421 24.5051 31.4737 24.6103 31.4737C24.8208 31.4737 24.6103 33.5789 24.084 36.6316C23.6419 39.1789 23.5366 39.3263 21.7893 40.2105C20.7787 40.7158 18.1893 41.3684 17.2208 41.3684C16.5051 41.3474 15.4735 40.5053 15.4735 39.9158C15.4735 39.6842 15.3682 39.4316 15.263 39.3684C15.1366 39.2842 15.1156 39.1368 15.1787 39.0105C15.263 38.8842 15.2208 38.7368 15.0945 38.6526C14.9472 38.5684 14.8419 37.3263 14.7998 35.3474C14.7366 31.8316 14.5682 32.3579 16.4419 30.0421L17.0103 29.3263L16.1472 29.7684C15.0524 30.3368 14.3787 31.2842 14.1051 32.7158C13.8735 33.8316 13.8524 33.8737 12.884 34.1895C10.1051 35.1158 7.89453 38.1684 7.89453 41.0947V42H98.3998C159.305 42 188.968 41.9368 189.052 41.7895C189.326 41.3474 188.526 39.3474 187.705 38.4C186.526 37.0316 184.926 36.3158 183.116 36.3158C182.337 36.3158 181.41 36.4211 181.031 36.5684C180.379 36.8 180.295 36.7789 179.895 36.2526C179.663 35.9579 179.284 35.6421 179.052 35.5789C178.379 35.3684 178.463 33.6632 179.179 32.9263C179.495 32.5895 179.768 32.0211 179.831 31.5158C179.937 30.7579 179.873 30.5684 179.305 30C178.547 29.2632 177.684 29.1789 176.926 29.7684C176.442 30.1474 176.337 30.1474 175.368 29.8526L174.316 29.5158V27.8105C174.295 26.3158 174.231 25.9579 173.726 25.1158C172.589 23.1579 170.547 22.0421 168.631 22.3158C167.831 22.4421 167.705 22.4 167.579 22.021C167.452 21.6 166.526 20.7368 166.21 20.7368C166.105 20.7368 165.916 21.5579 165.789 22.5684C165.516 24.3789 165.158 25.3684 165.158 24.2737C165.158 23.9579 165.073 23.6632 164.989 23.6C164.884 23.5368 164.842 23.2 164.863 22.8632C164.884 22.5053 164.821 22.2105 164.737 22.2105C164.652 22.2105 164.61 21.8316 164.673 21.3684C164.8 20.4 164.547 20.2947 163.389 20.8421C162.695 21.1789 162.695 21.1789 161.873 20.3579C161.431 19.9158 160.884 19.4526 160.652 19.3263C160.273 19.1158 160.273 19.0526 160.863 17.8737C161.663 16.2526 161.726 13.9579 161.01 12.6316C160.421 11.4947 158.905 10.1263 157.873 9.76842C155.747 9.03157 152.842 9.72631 151.852 11.2C151.537 11.6632 151.263 11.8526 151.052 11.7684C150.147 11.3684 148.568 11.4316 147.495 11.8947L146.4 12.3789L145.831 11.8526C144.652 10.7368 143.958 10.5263 141.473 10.5263C139.284 10.5263 139.073 10.5684 137.747 11.221C136.821 11.6632 136 12.2737 135.347 13.0105C134.421 14.0421 134.358 14.0842 134.126 13.6842C133.684 12.8842 131.705 11.1158 130.758 10.6526C130.231 10.421 129.347 10.1053 128.8 9.95789C128.231 9.81052 127.747 9.66315 127.705 9.6421C127.642 9.59999 127.895 9.26315 128.273 8.8842C129.179 7.95789 129.579 6.86315 129.579 5.36842C129.579 3.2421 128.231 1.19999 126.295 0.399994C125.137 -0.0842171 122.695 0.042099 121.558 0.631573ZM78.5682 7.72631C78.5051 7.87368 78.463 7.76842 78.463 7.47368C78.463 7.17894 78.5051 7.07368 78.5682 7.2C78.6103 7.34736 78.6103 7.59999 78.5682 7.72631ZM146.295 19.7895C146.442 20.5053 147.537 23.2421 149.095 26.7368C149.495 27.6632 149.852 28.4421 149.873 28.4632C149.873 28.4842 149.895 26.5263 149.895 24.1474V19.7895L150.589 19.7263L151.263 19.6632V27.0316C151.263 31.0947 151.2 34.4211 151.116 34.4211C151.01 34.4211 150.8 34.0632 150.61 33.6211C149.895 32 149.6 31.3263 149.01 30C148.652 29.2421 148.147 27.9789 147.873 27.1789L147.368 25.7053L147.305 29.8526L147.263 34H146.547C146.126 34 145.789 33.8737 145.726 33.7053C145.579 33.3263 145.579 19.7053 145.726 19.3263C145.916 18.8421 146.168 19.0316 146.295 19.7895ZM46.7998 20.4632C47.2208 21.6421 49.9156 28.0842 50.0419 28.2316C50.084 28.2737 50.1261 26.3789 50.1051 24.0421V19.7895H50.7998H51.5156L51.4945 27.1579C51.4735 31.2 51.4314 34.5474 51.3893 34.5684C51.3682 34.6105 51.0103 33.8947 50.6314 32.9895C50.2524 32.1053 49.6208 30.6947 49.263 29.8947C48.884 29.0737 48.4208 27.9158 48.2103 27.3263C48.0208 26.7158 47.7682 26.1684 47.663 26.1053C47.5577 26.0211 47.4735 27.5789 47.4735 29.9579V33.9579L46.7366 34.0421L45.9998 34.1263V26.6947C45.9998 22.3789 46.084 19.2632 46.1893 19.2632C46.2945 19.2632 46.5682 19.8105 46.7998 20.4632ZM76.863 22.7789C77.2419 24.6105 77.7893 27.2421 78.1051 28.6316C78.3998 30.0211 78.7366 31.6211 78.863 32.2105C78.9682 32.7789 79.1156 33.4316 79.1787 33.6211C79.263 33.9368 79.1577 34 78.4419 34C77.5156 34 77.5577 34.0842 77.1998 31.5789L77.0524 30.5263L76.084 30.4632C75.4735 30.4211 75.0524 30.5053 74.9051 30.6737C74.7998 30.8211 74.5682 31.6421 74.4209 32.4632L74.1472 34H73.3472H72.5472L72.6524 33.2C72.7156 32.7789 72.863 32.1895 72.9472 31.8947C73.0524 31.6 73.1998 31.0316 73.263 30.6316C73.4314 29.6632 73.9577 27.3474 74.2103 26.4211C74.3156 26.0211 74.7156 24.3158 75.0735 22.6316C75.7472 19.4737 75.8524 19.1579 76.063 19.3474C76.1261 19.4105 76.484 20.9684 76.863 22.7789ZM85.5366 20.7368C86.084 22.2737 88.5472 28.1684 88.7156 28.3579C88.7787 28.4421 88.8419 26.5474 88.8419 24.1474V19.7895L89.5366 19.7263L90.2103 19.6632V27.0737C90.2103 33.3684 90.1682 34.4421 89.9156 34.2316C89.7472 34.1053 89.5156 33.6842 89.3682 33.3053C89.2208 32.9263 89.0314 32.4421 88.9261 32.2105C88.8209 31.9789 88.6524 31.5158 88.5261 31.2C88.3998 30.8632 88.2103 30.6737 88.084 30.7368C87.9577 30.8211 87.8945 30.7579 87.9366 30.6105C87.9577 30.4421 87.6208 29.3263 87.1577 28.1053L86.3156 25.8947L86.2524 29.9579L86.2103 34.0211L85.4103 33.9579L84.6314 33.8947L84.5682 26.8421C84.5472 22.9684 84.5682 19.6632 84.6314 19.4947C84.7998 19.0737 85.0314 19.4105 85.5366 20.7368ZM59.4735 26.8421V34H58.7577C58.3577 34 57.9577 33.8947 57.8735 33.7684C57.8103 33.6421 57.7472 30.5053 57.7682 26.7789C57.7893 19.5368 57.7682 19.6842 58.9051 19.6842H59.4735V26.8421ZM98.6103 20.1053C99.663 20.6316 100.547 21.7053 101.052 23.0947C101.389 24 101.473 24.7579 101.473 27.0526C101.473 29.8316 101.452 29.9368 100.8 31.2842C100.337 32.2316 99.8524 32.8421 99.3261 33.2211C98.463 33.7895 96.863 34.3158 96.5261 34.1053C96.2945 33.9579 96.2314 20.0632 96.463 19.8316C96.7366 19.5579 97.8103 19.6842 98.6103 20.1053ZM118.905 19.8526C118.968 19.9368 118.968 20.2526 118.905 20.5895C118.8 21.1158 118.716 21.1579 117.768 21.1579H116.737V25.3684V29.5579L117.789 29.4316C118.821 29.3053 118.842 29.3263 118.842 29.8526C118.842 30.3579 118.758 30.4 117.852 30.4632L116.842 30.5263L116.779 32.2737L116.716 34.0211L115.937 33.9579L115.158 33.8947L115.137 27.1579C115.116 23.3895 115.179 20.2526 115.284 20.0421C115.452 19.7474 115.789 19.6842 117.158 19.6842C118.063 19.6842 118.863 19.7474 118.905 19.8526ZM126.863 20C128.673 20.6526 129.789 22.6105 129.789 25.1368C129.789 26.8842 129.242 28.1053 127.979 29.2842L127.052 30.1684L128.61 31.5789C129.473 32.3579 130.484 33.1579 130.821 33.3263C131.789 33.7895 131.621 34 130.316 34C129.242 34 129.073 33.9368 128.21 33.1368C127.684 32.6526 127.052 31.9158 126.8 31.4947L126.316 30.7368L126.21 32.3158L126.105 33.8947L125.326 33.9579C124.673 34.0211 124.526 33.9579 124.526 33.6421C124.463 30.2316 124.568 20 124.652 19.8737C124.821 19.5789 125.852 19.6421 126.863 20ZM139.895 20.4421V21.1579H138.842H137.789V25.3684V29.6L138.863 29.4526L139.937 29.3053L139.852 29.9158C139.81 30.4211 139.705 30.5053 139.284 30.4632C139.01 30.4211 138.568 30.4421 138.295 30.5053C137.852 30.6316 137.789 30.7579 137.789 31.7053V32.7789L138.947 32.6947L140.105 32.6105V33.3053V34.0211L138.168 33.9579L136.21 33.8947L136.147 27.0737C136.126 23.3053 136.147 20.1053 136.21 19.9579C136.273 19.7474 136.758 19.6842 138.105 19.7053L139.895 19.7474V20.4421ZM160.695 20.021C161.031 20.1263 161.158 20.3158 161.158 20.7158C161.158 21.2421 161.095 21.2842 160.442 21.2C159.326 21.0737 158.631 21.8526 158.631 23.2421C158.631 24.1474 158.758 24.4632 159.579 25.621C161.684 28.5895 162.147 29.7263 161.873 31.2211C161.558 33.0316 160.4 34 158.568 34C157.516 34 157.052 33.6211 157.263 32.9474C157.389 32.5474 157.537 32.5053 158.273 32.5895C159.01 32.6737 159.221 32.6105 159.726 32.1053C160.758 31.0526 160.484 29.1158 159.01 27.2211C158.631 26.7158 158.252 26.2737 158.189 26.2105C158.126 26.1474 157.831 25.6842 157.537 25.1579C155.979 22.4 157.895 19.2842 160.695 20.021ZM88.1261 24.5895C87.9156 24.7789 87.8945 24.7579 88.0209 24.4632C88.084 24.2526 88.2103 24.1474 88.2735 24.2105C88.3366 24.2737 88.2735 24.4421 88.1261 24.5895Z" fill="black"/>
<path d="M75.916 25.1791C75.8528 25.558 75.2423 28.6949 75.137 29.0949C75.0739 29.4738 75.137 29.5791 75.4739 29.5791C75.7054 29.5791 76.0633 29.4107 76.2739 29.2002C76.6107 28.8844 76.6107 28.6949 76.3791 27.2633C76.0844 25.5791 75.9581 24.9686 75.916 25.1791Z" fill="black"/>
<path d="M98 26.9267C98 30.9267 98.0632 32.7161 98.2105 32.6319C98.6316 32.3793 99.3895 30.9477 99.7053 29.8951C100.189 28.2109 100.063 24.7161 99.4526 23.074C99.1579 22.3161 98.7368 21.6004 98.4842 21.4109L98 21.1161V26.9267Z" fill="black"/>
<path d="M126.211 25.1582C126.211 27.3477 126.274 29.1582 126.337 29.1582C126.506 29.1582 127.243 28.2529 127.264 28.0214C127.264 27.9161 127.411 27.7266 127.579 27.6003C128.106 27.2003 128.4 25.2003 128.106 23.8108C127.874 22.674 126.906 21.1582 126.4 21.1582C126.295 21.1582 126.211 22.9477 126.211 25.1582Z" fill="black"/>
<path d="M30.0842 10.8003C28.7789 11.4739 26.9895 12.5687 26.1053 13.2424C24.5053 14.4845 22.0211 17.2634 21.1579 18.8003C20.6526 19.6845 20.3579 19.8318 17.6842 20.5055C12.1474 21.8739 6.69474 21.9371 3.81053 20.6529C0.273684 19.0739 0.147368 16.5687 3.45263 13.116C3.97895 12.5687 4.35789 12.0845 4.29474 12.0213C4.25263 11.9792 3.51579 12.295 2.65263 12.716C1.26316 13.3897 1.01053 13.6003 0.547368 14.5266C0.0631579 15.4529 0 15.8318 0 17.6845C0 20.0845 0.252632 20.8213 1.55789 22.1687C3.70526 24.3582 7.47368 25.3897 11.8947 24.9476C13.7474 24.7582 16.5474 24.295 19.1158 23.7687C19.6421 23.6634 19.6842 23.7055 19.6842 24.2739C19.6842 25.0318 20.3789 25.9582 21.2 26.316L21.8105 26.5687L19.9579 27.916C17.8105 29.4739 15.8737 31.3687 15.3895 32.4003C15.2 32.8003 15.0526 33.4739 15.0526 33.895C15.0526 34.8634 15.7684 37.7897 16.4 39.4108L16.8842 40.6318L18.1263 40.6108C19.0737 40.5897 19.7474 40.4213 20.9474 39.8529C21.8105 39.4529 22.6316 38.9897 22.7579 38.8213C23.0737 38.4424 24.0421 32.9476 23.7895 32.9476C23.7474 32.9476 23.0526 33.3687 22.2737 33.8739C20.5263 34.9897 18.2105 36.1687 18.0632 36.0213C17.8737 35.8529 19.3684 34.0845 21.0316 32.4634C22.7368 30.8424 24.3789 29.6003 26.2737 28.5055C27.7474 27.6845 32.0632 25.8739 33.1158 25.6634C33.4947 25.5792 33.8526 25.4318 33.9158 25.3476C33.979 25.2424 33.5789 24.6318 33.0316 23.9792C32.0632 22.8634 31.9789 22.8003 31.2632 22.9476C27.5579 23.6213 24.3368 23.8318 23.3895 23.4739C22.4211 23.116 22.7579 22.695 24.8 21.7266C28.7368 19.8739 32.0632 17.1792 34 14.2739C35.2842 12.3371 35.3263 11.8318 34.2737 10.8003C33.5789 10.1687 32.7158 9.55815 32.4842 9.5792C32.4421 9.60026 31.3684 10.1476 30.0842 10.8003ZM30.9895 13.7055C29.5789 15.516 25.1579 18.9055 24.7579 18.5055C24.4632 18.2108 31.3684 12.3371 31.6632 12.6318C31.7053 12.695 31.4105 13.1792 30.9895 13.7055Z" fill="black"/>
<path d="M36.0212 21.3056C35.8318 21.495 35.8739 29.1582 36.0633 29.1582C36.316 29.1582 37.3686 28.0214 37.3686 27.7266C37.3686 27.5793 37.4528 27.474 37.537 27.474C37.6423 27.474 37.8528 26.9477 38.0002 26.3161C38.4423 24.4214 37.7475 22.0214 36.5475 21.3687C36.337 21.2635 36.1054 21.2424 36.0212 21.3056Z" fill="black"/>
<path d="M23.8112 22.61C23.4322 22.7574 23.4322 22.7785 23.7691 22.9048C24.2533 23.0942 25.2428 23.0942 26.548 22.9048C27.4322 22.7785 27.4954 22.7363 27.0533 22.61C26.3586 22.4206 24.3165 22.4206 23.8112 22.61Z" fill="black"/>
<path d="M18.3368 26.2527C16.9262 28.6737 17.0736 29.1369 18.821 27.8316L20.2736 26.7579L19.7683 26.2737C19.4947 26.0211 19.2631 25.7053 19.2631 25.579C19.2631 25.0948 18.821 25.4106 18.3368 26.2527Z" fill="black"/>
</svg>
