<svg width="92" height="90" viewBox="0 0 92 90" fill="none" xmlns="http://www.w3.org/2000/svg">
<g clip-path="url(#clip0_13_8769)">
<path d="M48.9569 89.9999C47.5579 89.9327 45.2066 89.8311 42.8573 89.7009C41.3784 89.6175 39.8935 89.5464 38.4249 89.3654C36.6695 89.1478 34.9203 88.8549 33.1814 88.5316C30.0312 87.9439 26.9589 87.0471 23.9746 85.892C21.0599 84.7654 18.387 83.2301 16.2302 80.9159C14.8763 79.4639 13.4364 78.0851 12.1542 76.5742C10.5853 74.7236 9.12488 72.7816 7.64811 70.8558C6.62604 69.5217 5.60192 68.1857 4.68431 66.7805C3.98382 65.7068 3.38163 64.5578 2.85729 63.3885C2.38005 62.3229 2.02161 61.1983 1.69184 60.0758C1.35798 58.9411 1.04665 57.788 0.85821 56.6228C0.571457 54.8393 0.311332 53.0457 0.200727 51.246C0.0491576 48.761 0 46.2698 0 43.7828C0 42.5016 0.16181 41.2164 0.305187 39.9413C0.583747 37.4706 0.831583 34.9916 1.2228 32.5371C1.54642 30.5035 2.02366 28.4903 2.49885 26.4831C2.86138 24.9539 3.23621 23.4165 3.78104 21.9462C4.30129 20.541 4.99974 19.1928 5.70843 17.8669C6.65881 16.0875 8.27487 14.9467 9.9155 13.8668C12.1624 12.3884 14.4503 10.971 16.9205 9.87696C20.3738 8.34771 23.8333 6.8327 27.2968 5.32175C29.1832 4.49815 31.0676 3.67252 32.9725 2.8957C35.1969 1.98872 37.4868 1.30544 39.8423 0.790945C43.2915 0.0344547 46.7776 -0.132299 50.2678 0.0913948C53.4302 0.292719 56.5538 0.860087 59.62 1.70605C63.0242 2.6476 66.3505 3.7986 69.5171 5.35429C71.4055 6.28363 73.2367 7.34313 75.033 8.43922C77.3536 9.85663 79.3302 11.7031 81.276 13.5842C83.7973 16.0265 85.524 18.9528 86.6772 22.2208C87.5088 24.5797 88.2891 26.961 88.9814 29.3627C89.4484 30.9794 89.7516 32.6449 90.0731 34.3002C90.8228 38.1721 91.1177 42.0868 90.9764 46.0217C90.9027 48.0492 90.6979 50.0747 90.5135 52.0981C90.3988 53.3426 90.2431 54.5872 90.0445 55.8215C89.8355 57.119 89.5795 58.4103 89.2969 59.6935C88.922 61.3915 88.5452 63.0916 88.0946 64.7713C87.3654 67.4861 86.4355 70.1359 85.141 72.6413C84.2357 74.3922 83.1153 75.9946 81.7122 77.414C79.5247 79.6286 77.3495 81.8554 74.7605 83.6165C72.0528 85.4589 69.0644 86.7299 65.9245 87.6389C64.2326 88.129 62.506 88.5133 60.7834 88.8916C57.2051 89.6786 53.5613 89.8758 48.9569 89.9999ZM47.1073 36.3318V32.5879C47.5293 33.2224 47.8631 33.7267 48.199 34.229C48.621 34.8655 49.0101 35.5265 49.4874 36.1182C49.6308 36.2951 50.0179 36.2951 50.3005 36.3318C50.3476 36.3379 50.4787 36.1081 50.4787 35.986C50.491 34.4792 50.4951 32.9702 50.4705 31.4634C50.4705 31.3393 50.2637 31.1482 50.1223 31.1116C49.7496 31.016 49.5775 31.1726 49.5877 31.5935C49.6144 32.6306 49.5959 33.6698 49.5959 34.8513C48.7725 33.6047 48.027 32.4944 47.304 31.3698C47.091 31.0363 46.7776 31.0424 46.5011 31.1299C46.3761 31.1705 46.2717 31.4715 46.2696 31.6566C46.2512 33.0455 46.2573 34.4344 46.2614 35.8234C46.2614 35.9881 46.2962 36.1508 46.3167 36.3318H47.1073ZM39.0475 56.5618C38.941 56.4276 38.896 56.3808 38.8611 56.3279C38.1586 55.2684 37.4479 54.213 36.7638 53.1413C36.5507 52.8078 36.2435 52.7874 35.9711 52.8871C35.8339 52.9359 35.7253 53.2511 35.7212 53.4484C35.7007 54.821 35.7069 56.1917 35.713 57.5643C35.713 57.7392 35.7581 57.9161 35.7806 58.0788H36.5856V54.4123C36.6921 54.5526 36.7351 54.6034 36.7719 54.6583C37.4745 55.7199 38.1852 56.7753 38.8693 57.845C39.0967 58.2008 39.4285 58.1602 39.7234 58.0849C39.832 58.0585 39.9262 57.7433 39.9283 57.5582C39.9447 56.1693 39.9324 54.7803 39.9406 53.3914C39.9406 53.0721 39.9262 52.8444 39.49 52.8424C39.0537 52.8403 39.0393 53.064 39.0414 53.3853C39.0516 54.4102 39.0455 55.4352 39.0455 56.5618H39.0475ZM36.7351 34.1274C36.6757 34.3572 36.6491 34.5341 36.5835 34.6968C36.35 35.2824 35.5164 35.7766 34.7729 35.6017C33.8491 35.3841 33.3227 34.77 33.2899 33.8061C33.251 32.6795 34.0335 31.8538 35.117 31.8843C35.6884 31.9006 36.1268 32.1568 36.4156 32.6469C36.6327 33.015 36.9665 32.8909 37.2779 32.8686C37.2574 32.655 37.2983 32.4131 37.2082 32.2361C36.5917 31.0221 34.6602 30.6296 33.5153 31.4776C32.4727 32.2483 32.2597 33.3058 32.4952 34.5036C32.7328 35.7013 33.9577 36.588 35.1702 36.4477C36.647 36.2789 37.6465 35.1929 37.5769 33.8549C37.5626 33.5925 37.4868 33.438 37.1918 33.442C36.5098 33.4481 35.8257 33.4217 35.1456 33.4624C35.0084 33.4705 34.8835 33.7145 34.7524 33.8508C34.8794 33.9443 35.0023 34.107 35.1334 34.1152C35.6393 34.1457 36.1493 34.1274 36.731 34.1274H36.7351ZM61.5515 58.0483C61.5515 56.4011 61.5576 54.7783 61.5371 53.1535C61.5371 53.0538 61.3549 52.8932 61.2361 52.8668C60.8469 52.7834 60.6441 52.9176 60.6564 53.3691C60.683 54.3919 60.6646 55.4148 60.6646 56.576C59.8965 55.4148 59.1796 54.3879 58.5283 53.3223C58.2415 52.8525 57.9077 52.7671 57.4181 52.9135V58.0686C58.2333 58.1724 58.2538 58.1561 58.2559 57.4179C58.2559 56.4784 58.2559 55.5389 58.2559 54.5973C59.0219 55.5836 59.7163 56.5801 60.3492 57.6152C60.6421 58.093 60.9841 58.2171 61.5515 58.0442V58.0483ZM22.1517 58.1134C23.0303 58.1134 23.8333 58.1561 24.628 58.0992C25.224 58.0564 25.6685 57.7229 25.8426 57.1047C26.0494 56.3686 25.734 55.8378 25.1585 55.4087C25.6869 54.9735 25.902 54.4712 25.732 53.8205C25.562 53.1677 25.0499 52.942 24.4784 52.8871C23.8025 52.822 23.1164 52.8525 22.4364 52.8708C22.3401 52.8729 22.168 53.0396 22.166 53.1311C22.1496 54.7682 22.1537 56.4072 22.1537 58.1154L22.1517 58.1134ZM42.1936 47.3375C43.6929 47.3395 44.8277 46.1987 44.8092 44.6308C44.7908 42.9571 43.7196 41.9363 42.2202 41.8915C40.725 41.8468 39.5555 43.0792 39.5637 44.6287C39.5739 46.1743 40.6984 47.3354 42.1936 47.3375ZM42.9412 58.1195C43.5823 58.1195 44.1579 58.1195 44.7314 58.1195C46.415 58.1154 47.3367 57.2999 47.4473 55.6345C47.5395 54.2598 46.8902 53.184 45.4626 52.9562C44.7785 52.8464 44.0719 52.8932 43.3755 52.8525C43.0354 52.8322 42.933 52.9766 42.9351 53.2979C42.9474 54.4489 42.9392 55.5999 42.9392 56.7529C42.9392 57.1881 42.9392 57.6233 42.9392 58.1215L42.9412 58.1195ZM58.387 34.5869C57.9773 34.5869 57.623 34.3917 57.3342 34.8208C56.8528 35.5346 56.1237 35.7705 55.3781 35.5204C54.6756 35.2865 54.268 34.6174 54.2741 33.7064C54.2782 32.8137 54.7104 32.1467 55.4314 31.927C55.5112 31.9026 55.5973 31.8925 55.6812 31.8843C56.4063 31.8131 56.9921 32.0531 57.3649 32.6917C57.5922 33.0821 57.9323 33.0252 58.2456 32.8991C58.2968 32.8787 58.2456 32.4456 58.1453 32.2544C57.5574 31.1482 56.2568 30.8167 55.0463 31.1726C53.9464 31.4959 53.3852 32.4822 53.377 33.8874C53.3647 35.86 55.3208 37.0516 57.2195 36.1345C57.8462 35.8315 58.2149 35.3048 58.387 34.5849V34.5869ZM69.3962 56.332C68.9804 56.3157 68.6056 56.1998 68.3066 56.696C67.9317 57.3162 67.2681 57.4403 66.5942 57.3142C65.9961 57.2023 65.6008 56.7997 65.439 56.2201C65.3591 55.9334 65.3407 55.6222 65.3428 55.3233C65.3489 54.5424 65.8077 53.9039 66.4836 53.6904C67.1923 53.4646 67.9338 53.7412 68.3967 54.4001C68.6834 54.8109 68.9415 54.8556 69.4146 54.5851C69.1054 53.2836 67.9891 52.641 66.4099 52.8546C65.1195 53.0294 64.3617 54.2232 64.4477 55.9436C64.5091 57.1678 65.5967 58.1724 66.8953 58.209C68.1898 58.2435 69.259 57.4606 69.3962 56.332ZM29.9022 36.2911C29.8592 36.1406 29.8366 36.0247 29.7957 35.9169C29.2529 34.4812 28.6978 33.0496 28.1735 31.6078C28.0526 31.2742 27.8765 31.1868 27.5385 31.1807C27.1821 31.1746 27.0305 31.3109 26.9138 31.6261C26.3956 33.0353 25.8528 34.4344 25.3223 35.8396C25.267 35.986 25.2465 36.1447 25.1933 36.3602C25.5906 36.289 26.0597 36.5758 26.1682 36.0715C26.3321 35.3028 26.7807 35.1197 27.4791 35.2275C27.6778 35.258 27.8908 35.256 28.0915 35.2275C28.4909 35.1726 28.6609 35.3638 28.7818 35.7176C29.0276 36.4497 29.0501 36.4456 29.9022 36.289V36.2911ZM54.6797 58.0361C54.6387 57.8938 54.608 57.7473 54.5547 57.6091C54.0242 56.2059 53.4814 54.8048 52.9612 53.3975C52.8485 53.0884 52.7134 52.94 52.3508 52.94C51.9801 52.94 51.8101 53.0681 51.6872 53.4036C51.171 54.8129 50.6283 56.214 50.0998 57.6172C50.0486 57.7534 50.022 57.8978 49.9708 58.0951C50.3517 58.0483 50.8269 58.3533 50.9334 57.8572C51.1137 57.0254 51.6175 56.8851 52.3344 56.9868C52.5003 57.0112 52.6785 57.0132 52.8444 56.9868C53.2664 56.9176 53.4487 57.1169 53.5736 57.4952C53.8071 58.2049 53.8808 58.2252 54.6797 58.0341V58.0361ZM19.4439 58.0483C19.4295 57.9548 19.4336 57.8511 19.3988 57.7636C18.8376 56.2628 18.2662 54.7682 17.7131 53.2653C17.5964 52.9461 17.3711 52.9562 17.1068 52.9501C16.8242 52.942 16.6358 52.9949 16.5231 53.2979C15.9926 54.7376 15.4375 56.1673 14.8968 57.603C14.8415 57.7473 14.819 57.9039 14.778 58.0625C15.6178 58.1805 15.6301 58.1846 15.8882 57.4504C16.0049 57.119 16.1708 56.9502 16.5497 56.9868C16.9205 57.0214 17.3014 57.0234 17.6722 56.9868C18.0736 56.9481 18.2436 57.1251 18.3624 57.4789C18.6082 58.213 18.6389 58.2171 19.4418 58.0524L19.4439 58.0483ZM32.6632 52.9095C31.8521 52.7935 31.8275 52.8139 31.8193 53.5216C31.8091 54.4529 31.8193 55.3843 31.7804 56.3157C31.7517 56.999 31.3687 57.3345 30.7071 57.3366C30.0148 57.3386 29.6379 57.0051 29.5949 56.2974C29.5601 55.7056 29.5622 55.1139 29.556 54.5201C29.5499 53.9832 29.556 53.4463 29.556 52.8851H28.704C28.704 54.0605 28.6917 55.2074 28.708 56.3523C28.7224 57.4138 29.4618 58.148 30.5453 58.211C31.6596 58.2761 32.5751 57.6335 32.6448 56.5862C32.7267 55.3762 32.6632 54.154 32.6632 52.9115V52.9095ZM43.4123 35.7603C43.3611 35.7318 43.3201 35.6891 43.2751 35.6871C42.9863 35.6749 42.6975 35.6688 42.4066 35.6688C41.1777 35.6688 41.1879 35.6688 41.2699 34.4568C41.2883 34.1904 41.3907 34.0989 41.6426 34.105C42.0339 34.1131 42.4271 34.1009 42.8183 34.105C43.0805 34.107 43.23 34.0257 43.228 33.7267C43.228 33.4319 43.0846 33.3424 42.8183 33.3444C42.4271 33.3485 42.0339 33.3627 41.6447 33.3322C41.5177 33.3221 41.319 33.198 41.2944 33.0923C41.0609 32.0775 41.2514 31.8518 42.2858 31.8518C42.4722 31.8518 42.6606 31.8538 42.847 31.8518C43.4533 31.8416 43.4942 31.7847 43.3447 31.1014C42.4763 31.1014 41.5955 31.0892 40.7148 31.1177C40.6021 31.1217 40.4055 31.3393 40.4035 31.4593C40.383 32.9804 40.385 34.5036 40.3994 36.0247C40.3994 36.1365 40.5387 36.3399 40.6165 36.3419C41.5443 36.3643 42.4722 36.3562 43.4123 36.3562V35.7664V35.7603ZM72.3313 58.0768H75.3299V57.426C74.9633 57.426 74.6397 57.426 74.3181 57.426C73.1342 57.426 73.1404 57.426 73.2182 56.2222C73.2346 55.9639 73.3206 55.8561 73.5828 55.8602C73.9925 55.8683 74.4062 55.8886 74.8097 55.8398C74.9428 55.8236 75.1456 55.6019 75.1415 55.4779C75.1374 55.3498 74.9449 55.1749 74.7974 55.1159C74.6336 55.0529 74.4267 55.1017 74.2403 55.0976C73.0748 55.0671 73.2469 55.3335 73.2203 54.0198C73.2141 53.7066 73.3391 53.5968 73.6402 53.6049C74.0826 53.6151 74.527 53.6049 74.9715 53.6009C75.2234 53.5988 75.3832 53.5175 75.3832 53.2145C75.3832 52.9074 75.2378 52.8464 74.9736 52.8505C74.2403 52.8586 73.505 52.8647 72.7717 52.8485C72.4399 52.8403 72.3211 52.9603 72.3252 53.2897C72.3395 54.2211 72.3293 55.1525 72.3293 56.0839C72.3293 56.7387 72.3293 57.3955 72.3293 58.0768H72.3313ZM50.7225 41.9729C49.9052 41.9729 49.0736 41.9973 48.2462 41.9627C47.8017 41.9444 47.689 42.1295 47.6911 42.522C47.7013 43.9272 47.6931 45.3303 47.6972 46.7355C47.6972 46.884 47.73 47.0324 47.7505 47.1951H48.5493C48.5493 46.5647 48.5595 45.9729 48.5452 45.3852C48.5391 45.1046 48.6353 44.9846 48.9282 44.9948C49.3358 45.009 49.7496 45.0233 50.1531 44.9785C50.2739 44.9663 50.4582 44.767 50.4644 44.647C50.4705 44.525 50.3149 44.3379 50.1858 44.283C50.024 44.2159 49.8171 44.2566 49.6308 44.2525C48.3752 44.2281 48.5759 44.4539 48.5452 43.1259C48.537 42.7985 48.6947 42.7192 48.9794 42.7273C49.3891 42.7375 49.7967 42.7334 50.2063 42.7273C50.8228 42.7172 50.8617 42.6623 50.7225 41.9749V41.9729ZM65.0806 31.1746C64.2572 30.9916 64.2019 31.016 63.8721 31.6667C63.5915 32.2199 63.3109 32.775 62.9955 33.3932C62.6678 32.7567 62.3749 32.1873 62.0799 31.62C61.7706 31.0201 61.6191 30.9651 60.8489 31.2092C61.1521 31.7806 61.4327 32.35 61.7502 32.9011C62.2438 33.7593 62.6575 34.6134 62.5387 35.6627C62.4548 36.4009 62.6084 36.47 63.4584 36.2504C63.0385 34.7801 63.8189 33.6027 64.4968 32.3947C64.6382 32.1446 64.7713 31.8904 64.8962 31.6322C64.9679 31.4878 65.0171 31.3312 65.0785 31.1726L65.0806 31.1746Z" fill="black"/>
<path d="M47.1071 36.3338H46.3165C46.296 36.1528 46.2633 35.9881 46.2612 35.8254C46.2571 34.4365 46.251 33.0475 46.2694 31.6586C46.2714 31.4735 46.3759 31.1726 46.5008 31.1319C46.7774 31.0445 47.0887 31.0384 47.3038 31.3719C48.0268 32.4964 48.7723 33.6068 49.5957 34.8534C49.5957 33.6718 49.6142 32.6327 49.5875 31.5956C49.5773 31.1746 49.7494 31.018 50.1221 31.1136C50.2635 31.1502 50.4683 31.3414 50.4703 31.4654C50.4949 32.9723 50.4908 34.4812 50.4785 35.9881C50.4785 36.1101 50.3474 36.3399 50.3003 36.3338C50.0197 36.2992 49.6306 36.2992 49.4872 36.1203C49.0099 35.5285 48.6208 34.8656 48.1988 34.2311C47.8629 33.7268 47.5291 33.2224 47.1071 32.59V36.3338Z" fill="white"/>
<path d="M39.0474 56.5637C39.0474 55.4371 39.0535 54.4122 39.0433 53.3873C39.0392 53.066 39.0556 52.8423 39.4918 52.8443C39.9281 52.8464 39.9445 53.0741 39.9424 53.3934C39.9363 54.7823 39.9465 56.1713 39.9302 57.5602C39.9281 57.7452 39.8339 58.0604 39.7253 58.0869C39.4304 58.1601 39.0986 58.2008 38.8712 57.8469C38.1851 56.7752 37.4743 55.7218 36.7738 54.6603C36.737 54.6054 36.6939 54.5525 36.5874 54.4142V58.0808H35.7825C35.7599 57.9181 35.7149 57.7432 35.7149 57.5663C35.7087 56.1936 35.7026 54.821 35.7231 53.4503C35.7251 53.2531 35.8357 52.9379 35.973 52.8891C36.2454 52.7914 36.5547 52.8118 36.7656 53.1433C37.4477 54.2149 38.1605 55.2704 38.863 56.3299C38.8978 56.3827 38.9409 56.4295 39.0494 56.5637H39.0474Z" fill="white"/>
<path d="M36.7355 34.1298C36.1559 34.1298 35.6459 34.1481 35.1379 34.1175C35.0048 34.1094 34.8839 33.9447 34.7569 33.8532C34.888 33.7169 35.0109 33.4729 35.1502 33.4648C35.8302 33.4241 36.5143 33.4505 37.1964 33.4444C37.4913 33.4424 37.5671 33.5949 37.5814 33.8573C37.6531 35.1974 36.6515 36.2813 35.1748 36.4501C33.9622 36.5883 32.7353 35.7037 32.4998 34.506C32.2622 33.3082 32.4772 32.2507 33.5198 31.48C34.6648 30.632 36.5962 31.0245 37.2128 32.2385C37.3029 32.4154 37.2619 32.6595 37.2824 32.871C36.9711 32.8933 36.6372 33.0174 36.4201 32.6493C36.1313 32.1592 35.693 31.903 35.1215 31.8867C34.038 31.8562 33.2556 32.6818 33.2945 33.8084C33.3273 34.7724 33.8537 35.3865 34.7774 35.6041C35.523 35.779 36.3546 35.2848 36.5881 34.6992C36.6536 34.5365 36.6802 34.3595 36.7396 34.1298H36.7355Z" fill="white"/>
<path d="M61.5493 58.0504C60.982 58.2233 60.6379 58.0992 60.347 57.6213C59.7141 56.5862 59.0177 55.5898 58.2537 54.6035C58.2537 55.543 58.2537 56.4825 58.2537 57.4241C58.2537 58.1622 58.2312 58.1785 57.416 58.0748V52.9197C57.9055 52.7733 58.2394 52.8587 58.5262 53.3284C59.1795 54.394 59.8944 55.421 60.6625 56.5822C60.6625 55.421 60.6809 54.3981 60.6543 53.3752C60.642 52.9238 60.8468 52.7895 61.2339 52.8729C61.3548 52.8993 61.535 53.058 61.535 53.1596C61.5534 54.7824 61.5493 56.4073 61.5493 58.0545V58.0504Z" fill="white"/>
<path d="M22.1495 58.1156C22.1495 56.4074 22.1454 54.7704 22.1618 53.1313C22.1618 53.0398 22.3359 52.873 22.4322 52.871C23.1122 52.8527 23.7983 52.8222 24.4743 52.8873C25.0457 52.9422 25.5578 53.1679 25.7278 53.8207C25.8978 54.4714 25.6807 54.9737 25.1543 55.4089C25.7319 55.84 26.0453 56.3688 25.8384 57.1049C25.6643 57.7252 25.2219 58.0566 24.6238 58.0993C23.8291 58.1563 23.0282 58.1136 22.1475 58.1136L22.1495 58.1156ZM23.0282 56.5803C23.0241 57.4974 23.1286 57.5787 24.0564 57.3916C24.1568 57.3713 24.2551 57.351 24.3555 57.3327C24.7426 57.2635 24.9679 57.0073 24.9966 56.6474C25.0273 56.2793 24.8245 55.9681 24.4538 55.8909C24.0626 55.8075 23.6509 55.8034 23.2474 55.8014C23.1757 55.8014 23.061 55.9702 23.0384 56.0759C23.0036 56.2366 23.0282 56.4115 23.0282 56.5803ZM23.0241 54.3474C23.0241 54.8436 23.2337 55.0917 23.6529 55.0917C24.4763 55.0917 24.8798 54.8558 24.9044 54.3576C24.929 53.8654 24.5111 53.6255 23.6324 53.6234C23.2269 53.6234 23.0241 53.8641 23.0241 54.3453V54.3474Z" fill="white"/>
<path d="M42.1915 47.3397C40.6963 47.3376 39.5718 46.1785 39.5616 44.631C39.5513 43.0814 40.7229 41.849 42.2181 41.8938C43.7175 41.9385 44.7907 42.9594 44.8071 44.633C44.8235 46.2009 43.6888 47.3437 42.1915 47.3397ZM42.2243 42.7621C41.1797 42.756 40.4485 43.5328 40.4587 44.6371C40.4669 45.7087 41.1633 46.4571 42.1608 46.4693C43.1952 46.4815 43.8895 45.7616 43.9161 44.6452C43.9428 43.5572 43.232 42.7662 42.2243 42.7601V42.7621Z" fill="white"/>
<path d="M42.9388 58.1215C42.9388 57.6233 42.9388 57.1881 42.9388 56.7529C42.9388 55.6019 42.947 54.4509 42.9347 53.2978C42.9306 52.9745 43.0351 52.8322 43.3751 52.8525C44.0715 52.8932 44.7781 52.8484 45.4622 52.9562C46.8898 53.186 47.5391 54.2618 47.4469 55.6344C47.3363 57.2999 46.4167 58.1154 44.731 58.1194C44.1554 58.1194 43.5819 58.1194 42.9408 58.1194L42.9388 58.1215ZM43.8318 55.488C43.8318 55.793 43.8257 56.0981 43.8318 56.4011C43.8523 57.4443 43.6434 57.3386 44.7842 57.3284C45.8247 57.3203 46.4331 56.7488 46.558 55.6954C46.6809 54.6624 46.1955 53.9364 45.1857 53.7107C44.86 53.6374 44.5118 53.668 44.1739 53.6436C43.8953 53.6232 43.8236 53.7696 43.8277 54.0157C43.8359 54.5058 43.8298 54.9979 43.8298 55.488H43.8318Z" fill="white"/>
<path d="M58.385 34.5893C58.213 35.3092 57.8443 35.8338 57.2175 36.1389C55.3209 37.056 53.3628 35.8643 53.3751 33.8918C53.3853 32.4845 53.9445 31.4982 55.0444 31.1769C56.2549 30.8211 57.5555 31.1546 58.1433 32.2588C58.2437 32.45 58.2929 32.8831 58.2437 32.9035C57.9303 33.0295 57.5903 33.0865 57.363 32.696C56.9902 32.0575 56.4044 31.8175 55.6793 31.8887C55.5953 31.8968 55.5093 31.907 55.4294 31.9314C54.7085 32.1531 54.2763 32.818 54.2722 33.7108C54.2681 34.6198 54.6757 35.2909 55.3762 35.5247C56.1217 35.7728 56.8509 35.5369 57.3322 34.8252C57.621 34.3961 57.9754 34.5893 58.385 34.5913V34.5893Z" fill="white"/>
<path d="M69.3966 56.3341C69.2593 57.4628 68.1881 58.2477 66.8957 58.2111C65.5971 58.1745 64.5095 57.1699 64.448 55.9457C64.362 54.2233 65.1198 53.0316 66.4102 52.8567C67.9894 52.6432 69.1057 53.2858 69.415 54.5873C68.9398 54.8598 68.6838 54.813 68.397 54.4023C67.9341 53.7413 67.1947 53.4668 66.484 53.6925C65.8101 53.9061 65.3492 54.5466 65.3431 55.3255C65.3411 55.6244 65.3595 55.9356 65.4394 56.2223C65.6012 56.8019 65.9965 57.2045 66.5946 57.3164C67.2684 57.4425 67.9321 57.3184 68.3069 56.6982C68.6059 56.202 68.9808 56.3179 69.3966 56.3341Z" fill="white"/>
<path d="M29.9003 36.2931C29.0482 36.4517 29.0277 36.4538 28.7799 35.7217C28.6611 35.3678 28.4911 35.1746 28.0897 35.2316C27.8889 35.2601 27.678 35.2621 27.4772 35.2316C26.7788 35.1238 26.3302 35.3068 26.1664 36.0755C26.0599 36.5778 25.5888 36.2911 25.1914 36.3643C25.2426 36.1487 25.2651 35.9901 25.3204 35.8437C25.8489 34.4385 26.3917 33.0394 26.9119 31.6301C27.0287 31.3149 27.1802 31.1787 27.5366 31.1848C27.8746 31.1909 28.0507 31.2783 28.1716 31.6118C28.6959 33.0536 29.251 34.4853 29.7938 35.921C29.8348 36.0287 29.8573 36.1426 29.9003 36.2951V36.2931ZM28.2945 34.4344C28.0425 33.7491 27.8131 33.1167 27.5366 32.3622L26.7972 34.4344H28.2945Z" fill="white"/>
<path d="M54.6776 58.0404C53.8788 58.2316 53.8051 58.2092 53.5716 57.5015C53.4466 57.1233 53.2644 56.924 52.8424 56.9931C52.6765 57.0195 52.5004 57.0175 52.3324 56.9931C51.6155 56.8914 51.1096 57.0297 50.9314 57.8635C50.8249 58.3597 50.3497 58.0546 49.9688 58.1014C50.022 57.9041 50.0466 57.7598 50.0978 57.6235C50.6262 56.2183 51.169 54.8192 51.6852 53.41C51.8081 53.0724 51.9801 52.9463 52.3488 52.9463C52.7113 52.9463 52.8445 53.0968 52.9592 53.4038C53.4774 54.8131 54.0202 56.2122 54.5527 57.6154C54.6039 57.7537 54.6367 57.8981 54.6776 58.0424V58.0404ZM51.5746 56.1919H53.078C52.826 55.5045 52.5946 54.8762 52.3201 54.1278C52.0498 54.8782 51.8285 55.4903 51.5746 56.1919Z" fill="white"/>
<path d="M19.4421 58.0527C18.6392 58.2174 18.6085 58.2134 18.3627 57.4792C18.2439 57.1254 18.0739 56.9485 17.6725 56.9871C17.3017 57.0237 16.9208 57.0217 16.55 56.9871C16.1711 56.9526 16.0052 57.1193 15.8885 57.4508C15.6304 58.1849 15.6181 58.1808 14.7783 58.0629C14.8172 57.9063 14.8418 57.7497 14.8971 57.6033C15.4379 56.1676 15.9929 54.7359 16.5234 53.2982C16.6361 52.9952 16.8245 52.9423 17.1072 52.9505C17.3714 52.9586 17.5967 52.9464 17.7134 53.2657C18.2644 54.7685 18.8379 56.2652 19.3991 57.7639C19.4319 57.8534 19.4299 57.9551 19.4442 58.0486L19.4421 58.0527ZM17.1174 54.1116C16.8552 54.8539 16.6238 55.5046 16.3862 56.1798H17.8671C17.6131 55.4762 17.3816 54.8376 17.1174 54.1116Z" fill="white"/>
<path d="M32.6609 52.9137C32.6609 54.1582 32.7224 55.3784 32.6425 56.5884C32.5729 57.6357 31.6573 58.2783 30.5431 58.2132C29.4595 58.1502 28.7201 57.416 28.7058 56.3545C28.6894 55.2076 28.7017 54.0627 28.7017 52.8873H29.5538C29.5538 53.4485 29.5497 53.9854 29.5538 54.5222C29.5599 55.114 29.5558 55.7078 29.5927 56.2996C29.6357 57.0073 30.0126 57.3408 30.7049 57.3387C31.3644 57.3387 31.7495 57.0012 31.7781 56.3179C31.8171 55.3886 31.8089 54.4551 31.8171 53.5238C31.8252 52.8161 31.8498 52.7957 32.6609 52.9117V52.9137Z" fill="white"/>
<path d="M43.4107 35.7643V36.354C42.4706 36.354 41.5427 36.3622 40.6149 36.3398C40.537 36.3398 40.3998 36.1344 40.3977 36.0226C40.3834 34.5015 40.3814 32.9783 40.4018 31.4572C40.4018 31.3372 40.6005 31.1196 40.7132 31.1155C41.5939 31.0871 42.4746 31.0993 43.3431 31.0993C43.4906 31.7846 43.4517 31.8395 42.8454 31.8497C42.659 31.8537 42.4706 31.8497 42.2842 31.8497C41.2478 31.8497 41.0593 32.0754 41.2928 33.0902C41.3174 33.1939 41.5161 33.3199 41.6431 33.3301C42.0322 33.3626 42.4255 33.3464 42.8167 33.3423C43.0809 33.3403 43.2243 33.4277 43.2263 33.7246C43.2263 34.0236 43.0809 34.1069 42.8167 34.1029C42.4255 34.0988 42.0322 34.111 41.641 34.1029C41.3891 34.0988 41.2867 34.1883 41.2682 34.4547C41.1863 35.6667 41.1781 35.6667 42.405 35.6667C42.6938 35.6667 42.9826 35.6748 43.2735 35.685C43.3165 35.685 43.3595 35.7297 43.4107 35.7582V35.7643Z" fill="white"/>
<path d="M72.3315 58.0808C72.3315 57.3995 72.3315 56.7427 72.3315 56.0879C72.3315 55.1565 72.3417 54.2251 72.3274 53.2937C72.3212 52.9643 72.44 52.8443 72.7739 52.8524C73.5072 52.8687 74.2404 52.8646 74.9757 52.8545C75.24 52.8504 75.3854 52.9134 75.3854 53.2185C75.3854 53.5215 75.2256 53.6008 74.9737 53.6049C74.5292 53.611 74.0868 53.6191 73.6423 53.6089C73.3413 53.6028 73.2163 53.7126 73.2225 54.0238C73.2491 55.3375 73.077 55.0731 74.2425 55.1016C74.4309 55.1056 74.6378 55.0568 74.7996 55.1199C74.9471 55.1768 75.1416 55.3537 75.1437 55.4818C75.1457 55.6059 74.945 55.8276 74.8119 55.8438C74.4084 55.8947 73.9946 55.8723 73.585 55.8642C73.3249 55.8601 73.2368 55.9679 73.2204 56.2261C73.1426 57.43 73.1344 57.43 74.3203 57.43C74.6419 57.43 74.9635 57.43 75.3321 57.43V58.0808H72.3335H72.3315Z" fill="white"/>
<path d="M50.7209 41.9773C50.8622 42.6647 50.8233 42.7196 50.2047 42.7297C49.7951 42.7358 49.3875 42.7399 48.9778 42.7297C48.6911 42.7236 48.5354 42.8009 48.5436 43.1283C48.5743 44.4542 48.3736 44.2285 49.6292 44.2549C49.8155 44.259 50.0224 44.2183 50.1842 44.2854C50.3133 44.3383 50.4689 44.5274 50.4628 44.6494C50.4566 44.7694 50.2744 44.9687 50.1515 44.9809C49.748 45.0236 49.3342 45.0114 48.9266 44.9972C48.6337 44.987 48.5374 45.107 48.5436 45.3876C48.5579 45.9774 48.5477 46.5671 48.5477 47.1975H47.7489C47.7284 47.0348 47.6956 46.8864 47.6956 46.7379C47.6915 45.3327 47.6997 43.9295 47.6895 42.5243C47.6874 42.1298 47.8001 41.9468 48.2445 41.9651C49.0741 41.9977 49.9057 41.9753 50.7209 41.9753V41.9773Z" fill="white"/>
<path d="M65.0782 31.1789C65.0168 31.3375 64.9656 31.492 64.8959 31.6384C64.769 31.8967 64.6358 32.1509 64.4965 32.401C63.8186 33.609 63.0382 34.7884 63.4581 36.2567C62.6081 36.4743 62.4565 36.4072 62.5384 35.669C62.6572 34.6197 62.2435 33.7656 61.7499 32.9074C61.4324 32.3563 61.1518 31.7869 60.8486 31.2155C61.6188 30.9714 61.7683 31.0263 62.0796 31.6262C62.3746 32.1936 62.6654 32.763 62.9952 33.3995C63.3086 32.7793 63.5892 32.2261 63.8718 31.673C64.2016 31.0223 64.2569 30.9999 65.0803 31.1809L65.0782 31.1789Z" fill="white"/>
<path d="M23.0279 56.5801C23.0279 56.4113 23.0012 56.2365 23.0381 56.0758C23.0606 55.9701 23.1753 55.8013 23.247 55.8013C23.6505 55.8033 24.0622 55.8074 24.4534 55.8907C24.8242 55.968 25.0269 56.2812 24.9962 56.6472C24.9675 57.0072 24.7422 57.2634 24.3551 57.3326C24.2547 57.3509 24.1564 57.3712 24.0561 57.3915C23.1282 57.5786 23.0238 57.4952 23.0279 56.5801Z" fill="black"/>
<path d="M23.0244 54.3474C23.0244 53.8661 23.2272 53.6255 23.6327 53.6255C24.5114 53.6255 24.9293 53.8675 24.9047 54.3596C24.8801 54.8578 24.4766 55.0937 23.6532 55.0937C23.234 55.0937 23.0244 54.8456 23.0244 54.3494V54.3474Z" fill="black"/>
<path d="M42.2247 42.7642C43.2324 42.7703 43.9431 43.5613 43.9165 44.6493C43.8899 45.7657 43.1955 46.4856 42.1612 46.4734C41.1637 46.4612 40.4673 45.7128 40.4591 44.6412C40.4488 43.5369 41.1801 42.7601 42.2247 42.7662V42.7642Z" fill="black"/>
<path d="M43.8323 55.4881C43.8323 54.998 43.8384 54.5059 43.8302 54.0158C43.8261 53.7697 43.8978 53.6253 44.1764 53.6436C44.5143 53.668 44.8625 53.6375 45.1882 53.7108C46.1959 53.9365 46.6814 54.6625 46.5605 55.6955C46.4356 56.7489 45.8273 57.3204 44.7868 57.3285C43.6459 57.3387 43.8548 57.4424 43.8343 56.4012C43.8282 56.0961 43.8343 55.7911 43.8343 55.4881H43.8323Z" fill="black"/>
<path d="M28.2941 34.4345H26.7969L27.5363 32.3623C27.8128 33.1188 28.0442 33.7492 28.2941 34.4345Z" fill="black"/>
<path d="M51.5742 56.192C51.8282 55.4904 52.0494 54.8783 52.3198 54.1279C52.5942 54.8763 52.8257 55.5067 53.0776 56.192H51.5742Z" fill="black"/>
<path d="M17.117 54.1113C17.3812 54.8393 17.6126 55.4779 17.8666 56.1795H16.3857C16.6254 55.5043 16.8548 54.8536 17.117 54.1113Z" fill="black"/>
</g>
<defs>
<clipPath id="clip0_13_8769">
<rect width="91.0112" height="90" fill="white"/>
</clipPath>
</defs>
</svg>
